%TF.GenerationSoftware,KiCad,Pcbnew,10.0.4*%
%TF.CreationDate,2026-07-07T13:00:24+03:00*%
%TF.ProjectId,PcbMot,5063624d-6f74-42e6-9b69-6361645f7063,rev?*%
%TF.SameCoordinates,Original*%
%TF.FileFunction,Legend,Top*%
%TF.FilePolarity,Positive*%
%FSLAX46Y46*%
G04 Gerber Fmt 4.6, Leading zero omitted, Abs format (unit mm)*
G04 Created by KiCad (PCBNEW 10.0.4) date 2026-07-07 13:00:24*
%MOMM*%
%LPD*%
G01*
G04 APERTURE LIST*
%ADD10C,0.100000*%
%ADD11C,0.300000*%
%ADD12C,0.150000*%
%ADD13C,0.120000*%
G04 APERTURE END LIST*
D10*
X136150891Y-140486199D02*
X136960414Y-140486199D01*
X136960414Y-140486199D02*
X137055652Y-140438580D01*
X137055652Y-140438580D02*
X137103272Y-140390961D01*
X137103272Y-140390961D02*
X137150891Y-140295723D01*
X137150891Y-140295723D02*
X137150891Y-140105247D01*
X137150891Y-140105247D02*
X137103272Y-140010009D01*
X137103272Y-140010009D02*
X137055652Y-139962390D01*
X137055652Y-139962390D02*
X136960414Y-139914771D01*
X136960414Y-139914771D02*
X136150891Y-139914771D01*
X136150891Y-139533818D02*
X136150891Y-138914771D01*
X136150891Y-138914771D02*
X136531843Y-139248104D01*
X136531843Y-139248104D02*
X136531843Y-139105247D01*
X136531843Y-139105247D02*
X136579462Y-139010009D01*
X136579462Y-139010009D02*
X136627081Y-138962390D01*
X136627081Y-138962390D02*
X136722319Y-138914771D01*
X136722319Y-138914771D02*
X136960414Y-138914771D01*
X136960414Y-138914771D02*
X137055652Y-138962390D01*
X137055652Y-138962390D02*
X137103272Y-139010009D01*
X137103272Y-139010009D02*
X137150891Y-139105247D01*
X137150891Y-139105247D02*
X137150891Y-139390961D01*
X137150891Y-139390961D02*
X137103272Y-139486199D01*
X137103272Y-139486199D02*
X137055652Y-139533818D01*
X135580946Y-145864078D02*
X135628566Y-145911697D01*
X135628566Y-145911697D02*
X135676185Y-146054554D01*
X135676185Y-146054554D02*
X135676185Y-146149792D01*
X135676185Y-146149792D02*
X135628566Y-146292649D01*
X135628566Y-146292649D02*
X135533327Y-146387887D01*
X135533327Y-146387887D02*
X135438089Y-146435506D01*
X135438089Y-146435506D02*
X135247613Y-146483125D01*
X135247613Y-146483125D02*
X135104756Y-146483125D01*
X135104756Y-146483125D02*
X134914280Y-146435506D01*
X134914280Y-146435506D02*
X134819042Y-146387887D01*
X134819042Y-146387887D02*
X134723804Y-146292649D01*
X134723804Y-146292649D02*
X134676185Y-146149792D01*
X134676185Y-146149792D02*
X134676185Y-146054554D01*
X134676185Y-146054554D02*
X134723804Y-145911697D01*
X134723804Y-145911697D02*
X134771423Y-145864078D01*
X134676185Y-145530744D02*
X134676185Y-144911697D01*
X134676185Y-144911697D02*
X135057137Y-145245030D01*
X135057137Y-145245030D02*
X135057137Y-145102173D01*
X135057137Y-145102173D02*
X135104756Y-145006935D01*
X135104756Y-145006935D02*
X135152375Y-144959316D01*
X135152375Y-144959316D02*
X135247613Y-144911697D01*
X135247613Y-144911697D02*
X135485708Y-144911697D01*
X135485708Y-144911697D02*
X135580946Y-144959316D01*
X135580946Y-144959316D02*
X135628566Y-145006935D01*
X135628566Y-145006935D02*
X135676185Y-145102173D01*
X135676185Y-145102173D02*
X135676185Y-145387887D01*
X135676185Y-145387887D02*
X135628566Y-145483125D01*
X135628566Y-145483125D02*
X135580946Y-145530744D01*
D11*
X301616123Y-129985592D02*
X301616123Y-128485592D01*
X301616123Y-129199878D02*
X302473266Y-129199878D01*
X302473266Y-129985592D02*
X302473266Y-128485592D01*
X303973267Y-129985592D02*
X303116124Y-129985592D01*
X303544695Y-129985592D02*
X303544695Y-128485592D01*
X303544695Y-128485592D02*
X303401838Y-128699878D01*
X303401838Y-128699878D02*
X303258981Y-128842735D01*
X303258981Y-128842735D02*
X303116124Y-128914164D01*
D10*
X167637737Y-84859928D02*
X168042499Y-85560996D01*
X168042499Y-85560996D02*
X168131358Y-85619665D01*
X168131358Y-85619665D02*
X168196407Y-85637095D01*
X168196407Y-85637095D02*
X168302695Y-85630715D01*
X168302695Y-85630715D02*
X168467652Y-85535477D01*
X168467652Y-85535477D02*
X168526321Y-85446618D01*
X168526321Y-85446618D02*
X168543751Y-85381570D01*
X168543751Y-85381570D02*
X168537371Y-85275282D01*
X168537371Y-85275282D02*
X168132609Y-84574213D01*
X168551382Y-84442406D02*
X168568812Y-84377357D01*
X168568812Y-84377357D02*
X168627481Y-84288499D01*
X168627481Y-84288499D02*
X168833677Y-84169451D01*
X168833677Y-84169451D02*
X168939965Y-84163072D01*
X168939965Y-84163072D02*
X169005014Y-84180502D01*
X169005014Y-84180502D02*
X169093873Y-84239171D01*
X169093873Y-84239171D02*
X169141492Y-84321649D01*
X169141492Y-84321649D02*
X169171681Y-84469177D01*
X169171681Y-84469177D02*
X168962524Y-85249763D01*
X168962524Y-85249763D02*
X169498635Y-84940239D01*
X162662005Y-87210185D02*
X162644575Y-87275234D01*
X162644575Y-87275234D02*
X162544667Y-87387902D01*
X162544667Y-87387902D02*
X162462188Y-87435521D01*
X162462188Y-87435521D02*
X162314661Y-87465710D01*
X162314661Y-87465710D02*
X162184563Y-87430851D01*
X162184563Y-87430851D02*
X162095705Y-87372182D01*
X162095705Y-87372182D02*
X161959227Y-87231034D01*
X161959227Y-87231034D02*
X161887799Y-87107316D01*
X161887799Y-87107316D02*
X161833800Y-86918549D01*
X161833800Y-86918549D02*
X161827420Y-86812261D01*
X161827420Y-86812261D02*
X161862280Y-86682163D01*
X161862280Y-86682163D02*
X161962188Y-86569495D01*
X161962188Y-86569495D02*
X162044667Y-86521876D01*
X162044667Y-86521876D02*
X162192194Y-86491687D01*
X162192194Y-86491687D02*
X162257243Y-86509117D01*
X162587158Y-86318641D02*
X162604587Y-86253592D01*
X162604587Y-86253592D02*
X162663257Y-86164734D01*
X162663257Y-86164734D02*
X162869453Y-86045686D01*
X162869453Y-86045686D02*
X162975741Y-86039306D01*
X162975741Y-86039306D02*
X163040790Y-86056736D01*
X163040790Y-86056736D02*
X163129648Y-86115405D01*
X163129648Y-86115405D02*
X163177267Y-86197884D01*
X163177267Y-86197884D02*
X163207457Y-86345411D01*
X163207457Y-86345411D02*
X162998299Y-87125997D01*
X162998299Y-87125997D02*
X163534410Y-86816473D01*
X231641678Y-84544942D02*
X231236917Y-85246010D01*
X231236917Y-85246010D02*
X231230537Y-85352298D01*
X231230537Y-85352298D02*
X231247967Y-85417347D01*
X231247967Y-85417347D02*
X231306636Y-85506205D01*
X231306636Y-85506205D02*
X231471593Y-85601443D01*
X231471593Y-85601443D02*
X231577881Y-85607823D01*
X231577881Y-85607823D02*
X231642930Y-85590393D01*
X231642930Y-85590393D02*
X231731788Y-85531724D01*
X231731788Y-85531724D02*
X232136550Y-84830656D01*
X232502575Y-86196682D02*
X232007704Y-85910967D01*
X232255140Y-86053824D02*
X232755140Y-85187799D01*
X232755140Y-85187799D02*
X232601232Y-85263898D01*
X232601232Y-85263898D02*
X232471135Y-85298757D01*
X232471135Y-85298757D02*
X232364847Y-85292378D01*
X227434590Y-80582013D02*
X227369541Y-80599443D01*
X227369541Y-80599443D02*
X227222014Y-80569253D01*
X227222014Y-80569253D02*
X227139535Y-80521634D01*
X227139535Y-80521634D02*
X227039627Y-80408967D01*
X227039627Y-80408967D02*
X227004767Y-80278869D01*
X227004767Y-80278869D02*
X227011147Y-80172581D01*
X227011147Y-80172581D02*
X227065146Y-79983814D01*
X227065146Y-79983814D02*
X227136574Y-79860096D01*
X227136574Y-79860096D02*
X227273052Y-79718948D01*
X227273052Y-79718948D02*
X227361910Y-79660279D01*
X227361910Y-79660279D02*
X227492008Y-79625420D01*
X227492008Y-79625420D02*
X227639535Y-79655609D01*
X227639535Y-79655609D02*
X227722014Y-79703228D01*
X227722014Y-79703228D02*
X227821922Y-79815896D01*
X227821922Y-79815896D02*
X227839352Y-79880945D01*
X228211757Y-81140682D02*
X227716886Y-80854968D01*
X227964321Y-80997825D02*
X228464321Y-80131799D01*
X228464321Y-80131799D02*
X228310414Y-80207898D01*
X228310414Y-80207898D02*
X228180317Y-80242758D01*
X228180317Y-80242758D02*
X228074028Y-80236378D01*
D12*
X229273553Y-80251232D02*
X229222973Y-79672172D01*
X228778681Y-79965517D02*
X229278681Y-79099492D01*
X229278681Y-79099492D02*
X229608595Y-79289968D01*
X229608595Y-79289968D02*
X229667264Y-79378827D01*
X229667264Y-79378827D02*
X229684694Y-79443875D01*
X229684694Y-79443875D02*
X229678314Y-79550164D01*
X229678314Y-79550164D02*
X229606886Y-79673881D01*
X229606886Y-79673881D02*
X229518028Y-79732551D01*
X229518028Y-79732551D02*
X229452979Y-79749980D01*
X229452979Y-79749980D02*
X229346691Y-79743601D01*
X229346691Y-79743601D02*
X229016776Y-79553124D01*
X229906611Y-80011885D02*
X230195286Y-80178552D01*
X230057099Y-80703613D02*
X229644706Y-80465517D01*
X229644706Y-80465517D02*
X230144706Y-79599492D01*
X230144706Y-79599492D02*
X230557099Y-79837587D01*
X230978833Y-80630933D02*
X230690158Y-80464266D01*
X230428253Y-80917898D02*
X230928253Y-80051873D01*
X230928253Y-80051873D02*
X231340646Y-80289968D01*
X231794279Y-80551873D02*
X231675231Y-80758070D01*
X231516654Y-80556543D02*
X231675231Y-80758070D01*
X231675231Y-80758070D02*
X231929047Y-80794639D01*
X231456275Y-80851598D02*
X231675231Y-80758070D01*
X231675231Y-80758070D02*
X231703711Y-80994455D01*
X232454108Y-80932826D02*
X232335060Y-81139022D01*
X232176483Y-80937496D02*
X232335060Y-81139022D01*
X232335060Y-81139022D02*
X232588876Y-81175591D01*
X232116104Y-81232551D02*
X232335060Y-81139022D01*
X232335060Y-81139022D02*
X232363540Y-81375408D01*
X151918255Y-59388366D02*
X151391484Y-59142640D01*
X151423383Y-59674080D02*
X150923383Y-58808055D01*
X150923383Y-58808055D02*
X151253297Y-58617579D01*
X151253297Y-58617579D02*
X151359586Y-58611199D01*
X151359586Y-58611199D02*
X151424634Y-58628629D01*
X151424634Y-58628629D02*
X151513493Y-58687298D01*
X151513493Y-58687298D02*
X151584921Y-58811016D01*
X151584921Y-58811016D02*
X151591301Y-58917304D01*
X151591301Y-58917304D02*
X151573871Y-58982353D01*
X151573871Y-58982353D02*
X151515202Y-59071211D01*
X151515202Y-59071211D02*
X151185288Y-59261687D01*
X152027504Y-58720448D02*
X152316179Y-58553781D01*
X152701801Y-58935985D02*
X152289408Y-59174080D01*
X152289408Y-59174080D02*
X151789408Y-58308055D01*
X151789408Y-58308055D02*
X152201801Y-58069960D01*
X153099726Y-58101400D02*
X152811050Y-58268067D01*
X153072955Y-58721699D02*
X152572955Y-57855674D01*
X152572955Y-57855674D02*
X152985348Y-57617579D01*
X153438981Y-57355674D02*
X153558028Y-57561870D01*
X153304213Y-57598439D02*
X153558028Y-57561870D01*
X153558028Y-57561870D02*
X153716606Y-57360344D01*
X153529549Y-57798256D02*
X153558028Y-57561870D01*
X153558028Y-57561870D02*
X153776984Y-57655399D01*
X154098810Y-56974721D02*
X154217857Y-57180918D01*
X153964042Y-57217487D02*
X154217857Y-57180918D01*
X154217857Y-57180918D02*
X154376435Y-56979392D01*
X154189378Y-57417304D02*
X154217857Y-57180918D01*
X154217857Y-57180918D02*
X154436813Y-57274446D01*
D10*
X146410178Y-144659894D02*
X146743511Y-145136085D01*
X146981606Y-144659894D02*
X146981606Y-145659894D01*
X146981606Y-145659894D02*
X146600654Y-145659894D01*
X146600654Y-145659894D02*
X146505416Y-145612275D01*
X146505416Y-145612275D02*
X146457797Y-145564656D01*
X146457797Y-145564656D02*
X146410178Y-145469418D01*
X146410178Y-145469418D02*
X146410178Y-145326561D01*
X146410178Y-145326561D02*
X146457797Y-145231323D01*
X146457797Y-145231323D02*
X146505416Y-145183704D01*
X146505416Y-145183704D02*
X146600654Y-145136085D01*
X146600654Y-145136085D02*
X146981606Y-145136085D01*
X145981606Y-145183704D02*
X145648273Y-145183704D01*
X145505416Y-144659894D02*
X145981606Y-144659894D01*
X145981606Y-144659894D02*
X145981606Y-145659894D01*
X145981606Y-145659894D02*
X145505416Y-145659894D01*
X144743511Y-145183704D02*
X145076844Y-145183704D01*
X145076844Y-144659894D02*
X145076844Y-145659894D01*
X145076844Y-145659894D02*
X144600654Y-145659894D01*
X144076844Y-145659894D02*
X144076844Y-145421799D01*
X144314939Y-145517037D02*
X144076844Y-145421799D01*
X144076844Y-145421799D02*
X143838749Y-145517037D01*
X144219701Y-145231323D02*
X144076844Y-145421799D01*
X144076844Y-145421799D02*
X143933987Y-145231323D01*
X143314939Y-145659894D02*
X143314939Y-145421799D01*
X143553034Y-145517037D02*
X143314939Y-145421799D01*
X143314939Y-145421799D02*
X143076844Y-145517037D01*
X143457796Y-145231323D02*
X143314939Y-145421799D01*
X143314939Y-145421799D02*
X143172082Y-145231323D01*
X142743510Y-145564656D02*
X142695891Y-145612275D01*
X142695891Y-145612275D02*
X142600653Y-145659894D01*
X142600653Y-145659894D02*
X142362558Y-145659894D01*
X142362558Y-145659894D02*
X142267320Y-145612275D01*
X142267320Y-145612275D02*
X142219701Y-145564656D01*
X142219701Y-145564656D02*
X142172082Y-145469418D01*
X142172082Y-145469418D02*
X142172082Y-145374180D01*
X142172082Y-145374180D02*
X142219701Y-145231323D01*
X142219701Y-145231323D02*
X142791129Y-144659894D01*
X142791129Y-144659894D02*
X142172082Y-144659894D01*
X135484169Y-141174138D02*
X135007978Y-141507471D01*
X135484169Y-141745566D02*
X134484169Y-141745566D01*
X134484169Y-141745566D02*
X134484169Y-141364614D01*
X134484169Y-141364614D02*
X134531788Y-141269376D01*
X134531788Y-141269376D02*
X134579407Y-141221757D01*
X134579407Y-141221757D02*
X134674645Y-141174138D01*
X134674645Y-141174138D02*
X134817502Y-141174138D01*
X134817502Y-141174138D02*
X134912740Y-141221757D01*
X134912740Y-141221757D02*
X134960359Y-141269376D01*
X134960359Y-141269376D02*
X135007978Y-141364614D01*
X135007978Y-141364614D02*
X135007978Y-141745566D01*
X134960359Y-140745566D02*
X134960359Y-140412233D01*
X135484169Y-140269376D02*
X135484169Y-140745566D01*
X135484169Y-140745566D02*
X134484169Y-140745566D01*
X134484169Y-140745566D02*
X134484169Y-140269376D01*
X134960359Y-139507471D02*
X134960359Y-139840804D01*
X135484169Y-139840804D02*
X134484169Y-139840804D01*
X134484169Y-139840804D02*
X134484169Y-139364614D01*
X134484169Y-138840804D02*
X134722264Y-138840804D01*
X134627026Y-139078899D02*
X134722264Y-138840804D01*
X134722264Y-138840804D02*
X134627026Y-138602709D01*
X134912740Y-138983661D02*
X134722264Y-138840804D01*
X134722264Y-138840804D02*
X134912740Y-138697947D01*
X134484169Y-138078899D02*
X134722264Y-138078899D01*
X134627026Y-138316994D02*
X134722264Y-138078899D01*
X134722264Y-138078899D02*
X134627026Y-137840804D01*
X134912740Y-138221756D02*
X134722264Y-138078899D01*
X134722264Y-138078899D02*
X134912740Y-137936042D01*
X134817502Y-137031280D02*
X135484169Y-137031280D01*
X134436550Y-137269375D02*
X135150835Y-137507470D01*
X135150835Y-137507470D02*
X135150835Y-136888423D01*
X222997418Y-90847511D02*
X222418359Y-90898091D01*
X222711704Y-91342383D02*
X221845679Y-90842383D01*
X221845679Y-90842383D02*
X222036155Y-90512469D01*
X222036155Y-90512469D02*
X222125013Y-90453800D01*
X222125013Y-90453800D02*
X222190062Y-90436370D01*
X222190062Y-90436370D02*
X222296350Y-90442750D01*
X222296350Y-90442750D02*
X222420068Y-90514178D01*
X222420068Y-90514178D02*
X222478737Y-90603036D01*
X222478737Y-90603036D02*
X222496167Y-90668085D01*
X222496167Y-90668085D02*
X222489787Y-90774373D01*
X222489787Y-90774373D02*
X222299311Y-91104288D01*
X222758072Y-90214453D02*
X222924738Y-89925778D01*
X223449799Y-90063965D02*
X223211704Y-90476358D01*
X223211704Y-90476358D02*
X222345679Y-89976358D01*
X222345679Y-89976358D02*
X222583774Y-89563965D01*
X223377119Y-89142231D02*
X223210453Y-89430906D01*
X223664085Y-89692811D02*
X222798060Y-89192811D01*
X222798060Y-89192811D02*
X223036155Y-88780418D01*
X223298060Y-88326785D02*
X223504256Y-88445833D01*
X223302730Y-88604410D02*
X223504256Y-88445833D01*
X223504256Y-88445833D02*
X223540825Y-88192017D01*
X223597785Y-88664789D02*
X223504256Y-88445833D01*
X223504256Y-88445833D02*
X223740642Y-88417353D01*
X223679012Y-87666956D02*
X223885209Y-87786004D01*
X223683683Y-87944581D02*
X223885209Y-87786004D01*
X223885209Y-87786004D02*
X223921778Y-87532188D01*
X223978737Y-88004960D02*
X223885209Y-87786004D01*
X223885209Y-87786004D02*
X224121595Y-87757524D01*
X166725250Y-84714719D02*
X166198480Y-84468993D01*
X166230378Y-85000433D02*
X165730378Y-84134408D01*
X165730378Y-84134408D02*
X166060293Y-83943932D01*
X166060293Y-83943932D02*
X166166581Y-83937552D01*
X166166581Y-83937552D02*
X166231630Y-83954982D01*
X166231630Y-83954982D02*
X166320488Y-84013651D01*
X166320488Y-84013651D02*
X166391917Y-84137369D01*
X166391917Y-84137369D02*
X166398297Y-84243657D01*
X166398297Y-84243657D02*
X166380867Y-84308706D01*
X166380867Y-84308706D02*
X166322198Y-84397564D01*
X166322198Y-84397564D02*
X165992283Y-84588040D01*
X166834499Y-84046801D02*
X167123174Y-83880134D01*
X167508797Y-84262338D02*
X167096404Y-84500433D01*
X167096404Y-84500433D02*
X166596404Y-83634408D01*
X166596404Y-83634408D02*
X167008797Y-83396313D01*
X167906721Y-83427753D02*
X167618046Y-83594420D01*
X167879951Y-84048052D02*
X167379951Y-83182027D01*
X167379951Y-83182027D02*
X167792344Y-82943932D01*
X168245976Y-82682027D02*
X168365024Y-82888223D01*
X168111208Y-82924792D02*
X168365024Y-82888223D01*
X168365024Y-82888223D02*
X168523601Y-82686697D01*
X168336544Y-83124609D02*
X168365024Y-82888223D01*
X168365024Y-82888223D02*
X168583980Y-82981752D01*
X168905805Y-82301074D02*
X169024853Y-82507271D01*
X168771037Y-82543840D02*
X169024853Y-82507271D01*
X169024853Y-82507271D02*
X169183430Y-82305745D01*
X168996373Y-82743657D02*
X169024853Y-82507271D01*
X169024853Y-82507271D02*
X169243809Y-82600800D01*
X169359438Y-82039170D02*
X169895549Y-81729646D01*
X169895549Y-81729646D02*
X169797350Y-82226227D01*
X169797350Y-82226227D02*
X169921068Y-82154798D01*
X169921068Y-82154798D02*
X170027356Y-82148419D01*
X170027356Y-82148419D02*
X170092405Y-82165848D01*
X170092405Y-82165848D02*
X170181263Y-82224517D01*
X170181263Y-82224517D02*
X170300311Y-82430714D01*
X170300311Y-82430714D02*
X170306691Y-82537002D01*
X170306691Y-82537002D02*
X170289261Y-82602051D01*
X170289261Y-82602051D02*
X170230592Y-82690909D01*
X170230592Y-82690909D02*
X169983156Y-82833766D01*
X169983156Y-82833766D02*
X169876868Y-82840146D01*
X169876868Y-82840146D02*
X169811819Y-82822716D01*
D12*
X134211619Y-144441620D02*
X133735428Y-144774953D01*
X134211619Y-145013048D02*
X133211619Y-145013048D01*
X133211619Y-145013048D02*
X133211619Y-144632096D01*
X133211619Y-144632096D02*
X133259238Y-144536858D01*
X133259238Y-144536858D02*
X133306857Y-144489239D01*
X133306857Y-144489239D02*
X133402095Y-144441620D01*
X133402095Y-144441620D02*
X133544952Y-144441620D01*
X133544952Y-144441620D02*
X133640190Y-144489239D01*
X133640190Y-144489239D02*
X133687809Y-144536858D01*
X133687809Y-144536858D02*
X133735428Y-144632096D01*
X133735428Y-144632096D02*
X133735428Y-145013048D01*
X133687809Y-144013048D02*
X133687809Y-143679715D01*
X134211619Y-143536858D02*
X134211619Y-144013048D01*
X134211619Y-144013048D02*
X133211619Y-144013048D01*
X133211619Y-144013048D02*
X133211619Y-143536858D01*
X133687809Y-142774953D02*
X133687809Y-143108286D01*
X134211619Y-143108286D02*
X133211619Y-143108286D01*
X133211619Y-143108286D02*
X133211619Y-142632096D01*
X133211619Y-142108286D02*
X133449714Y-142108286D01*
X133354476Y-142346381D02*
X133449714Y-142108286D01*
X133449714Y-142108286D02*
X133354476Y-141870191D01*
X133640190Y-142251143D02*
X133449714Y-142108286D01*
X133449714Y-142108286D02*
X133640190Y-141965429D01*
X133211619Y-141346381D02*
X133449714Y-141346381D01*
X133354476Y-141584476D02*
X133449714Y-141346381D01*
X133449714Y-141346381D02*
X133354476Y-141108286D01*
X133640190Y-141489238D02*
X133449714Y-141346381D01*
X133449714Y-141346381D02*
X133640190Y-141203524D01*
X163206546Y-85364497D02*
X162679775Y-85118771D01*
X162711674Y-85650211D02*
X162211674Y-84784186D01*
X162211674Y-84784186D02*
X162541588Y-84593710D01*
X162541588Y-84593710D02*
X162647877Y-84587330D01*
X162647877Y-84587330D02*
X162712925Y-84604760D01*
X162712925Y-84604760D02*
X162801784Y-84663429D01*
X162801784Y-84663429D02*
X162873212Y-84787147D01*
X162873212Y-84787147D02*
X162879592Y-84893435D01*
X162879592Y-84893435D02*
X162862162Y-84958484D01*
X162862162Y-84958484D02*
X162803493Y-85047342D01*
X162803493Y-85047342D02*
X162473579Y-85237818D01*
X163315795Y-84696579D02*
X163604470Y-84529912D01*
X163990092Y-84912116D02*
X163577699Y-85150211D01*
X163577699Y-85150211D02*
X163077699Y-84284186D01*
X163077699Y-84284186D02*
X163490092Y-84046091D01*
X164388017Y-84077531D02*
X164099341Y-84244198D01*
X164361246Y-84697830D02*
X163861246Y-83831805D01*
X163861246Y-83831805D02*
X164273639Y-83593710D01*
X164727272Y-83331805D02*
X164846319Y-83538001D01*
X164592504Y-83574570D02*
X164846319Y-83538001D01*
X164846319Y-83538001D02*
X165004897Y-83336475D01*
X164817840Y-83774387D02*
X164846319Y-83538001D01*
X164846319Y-83538001D02*
X165065275Y-83631530D01*
X165387101Y-82950852D02*
X165506148Y-83157049D01*
X165252333Y-83193618D02*
X165506148Y-83157049D01*
X165506148Y-83157049D02*
X165664726Y-82955523D01*
X165477669Y-83393435D02*
X165506148Y-83157049D01*
X165506148Y-83157049D02*
X165725104Y-83250577D01*
D10*
X231653475Y-83778676D02*
X231602895Y-83199617D01*
X231158603Y-83492962D02*
X231658603Y-82626937D01*
X231658603Y-82626937D02*
X231988517Y-82817413D01*
X231988517Y-82817413D02*
X232047186Y-82906271D01*
X232047186Y-82906271D02*
X232064616Y-82971320D01*
X232064616Y-82971320D02*
X232058236Y-83077608D01*
X232058236Y-83077608D02*
X231986808Y-83201326D01*
X231986808Y-83201326D02*
X231897950Y-83259995D01*
X231897950Y-83259995D02*
X231832901Y-83277425D01*
X231832901Y-83277425D02*
X231726613Y-83271045D01*
X231726613Y-83271045D02*
X231396698Y-83080569D01*
X232286533Y-83539330D02*
X232575208Y-83705996D01*
X232437021Y-84231057D02*
X232024628Y-83992962D01*
X232024628Y-83992962D02*
X232524628Y-83126937D01*
X232524628Y-83126937D02*
X232937021Y-83365032D01*
X233358755Y-84158377D02*
X233070080Y-83991711D01*
X232808175Y-84445343D02*
X233308175Y-83579318D01*
X233308175Y-83579318D02*
X233720568Y-83817413D01*
X234174201Y-84079318D02*
X234055153Y-84285514D01*
X233896576Y-84083988D02*
X234055153Y-84285514D01*
X234055153Y-84285514D02*
X234308969Y-84322083D01*
X233836197Y-84379043D02*
X234055153Y-84285514D01*
X234055153Y-84285514D02*
X234083633Y-84521900D01*
X234834030Y-84460270D02*
X234714982Y-84666467D01*
X234556405Y-84464941D02*
X234714982Y-84666467D01*
X234714982Y-84666467D02*
X234968798Y-84703036D01*
X234496026Y-84759995D02*
X234714982Y-84666467D01*
X234714982Y-84666467D02*
X234743462Y-84902853D01*
D12*
X296534819Y-142673333D02*
X296058628Y-143006666D01*
X296534819Y-143244761D02*
X295534819Y-143244761D01*
X295534819Y-143244761D02*
X295534819Y-142863809D01*
X295534819Y-142863809D02*
X295582438Y-142768571D01*
X295582438Y-142768571D02*
X295630057Y-142720952D01*
X295630057Y-142720952D02*
X295725295Y-142673333D01*
X295725295Y-142673333D02*
X295868152Y-142673333D01*
X295868152Y-142673333D02*
X295963390Y-142720952D01*
X295963390Y-142720952D02*
X296011009Y-142768571D01*
X296011009Y-142768571D02*
X296058628Y-142863809D01*
X296058628Y-142863809D02*
X296058628Y-143244761D01*
X296011009Y-142244761D02*
X296011009Y-141911428D01*
X296534819Y-141768571D02*
X296534819Y-142244761D01*
X296534819Y-142244761D02*
X295534819Y-142244761D01*
X295534819Y-142244761D02*
X295534819Y-141768571D01*
X296011009Y-141006666D02*
X296011009Y-141339999D01*
X296534819Y-141339999D02*
X295534819Y-141339999D01*
X295534819Y-141339999D02*
X295534819Y-140863809D01*
X295534819Y-140339999D02*
X295772914Y-140339999D01*
X295677676Y-140578094D02*
X295772914Y-140339999D01*
X295772914Y-140339999D02*
X295677676Y-140101904D01*
X295963390Y-140482856D02*
X295772914Y-140339999D01*
X295772914Y-140339999D02*
X295963390Y-140197142D01*
X295534819Y-139578094D02*
X295772914Y-139578094D01*
X295677676Y-139816189D02*
X295772914Y-139578094D01*
X295772914Y-139578094D02*
X295677676Y-139339999D01*
X295963390Y-139720951D02*
X295772914Y-139578094D01*
X295772914Y-139578094D02*
X295963390Y-139435237D01*
D10*
X169169501Y-95919800D02*
X168923775Y-96446570D01*
X169455215Y-96414672D02*
X168589190Y-96914672D01*
X168589190Y-96914672D02*
X168398714Y-96584757D01*
X168398714Y-96584757D02*
X168392334Y-96478469D01*
X168392334Y-96478469D02*
X168409764Y-96413420D01*
X168409764Y-96413420D02*
X168468433Y-96324562D01*
X168468433Y-96324562D02*
X168592151Y-96253133D01*
X168592151Y-96253133D02*
X168698439Y-96246753D01*
X168698439Y-96246753D02*
X168763488Y-96264183D01*
X168763488Y-96264183D02*
X168852346Y-96322852D01*
X168852346Y-96322852D02*
X169042822Y-96652767D01*
X168501583Y-95810551D02*
X168334916Y-95521876D01*
X168717120Y-95136253D02*
X168955215Y-95548646D01*
X168955215Y-95548646D02*
X168089190Y-96048646D01*
X168089190Y-96048646D02*
X167851095Y-95636253D01*
X167882535Y-94738329D02*
X168049202Y-95027004D01*
X168502834Y-94765099D02*
X167636809Y-95265099D01*
X167636809Y-95265099D02*
X167398714Y-94852706D01*
X167136809Y-94399074D02*
X167343005Y-94280026D01*
X167379574Y-94533842D02*
X167343005Y-94280026D01*
X167343005Y-94280026D02*
X167141479Y-94121449D01*
X167579391Y-94308506D02*
X167343005Y-94280026D01*
X167343005Y-94280026D02*
X167436534Y-94061070D01*
X166755856Y-93739245D02*
X166962053Y-93620197D01*
X166998622Y-93874013D02*
X166962053Y-93620197D01*
X166962053Y-93620197D02*
X166760527Y-93461620D01*
X167198439Y-93648677D02*
X166962053Y-93620197D01*
X166962053Y-93620197D02*
X167055582Y-93401241D01*
X167050453Y-92249501D02*
X167336167Y-92744373D01*
X167193310Y-92496937D02*
X166327285Y-92996937D01*
X166327285Y-92996937D02*
X166498622Y-93007987D01*
X166498622Y-93007987D02*
X166628719Y-93042847D01*
X166628719Y-93042847D02*
X166717578Y-93101516D01*
%TO.C,REF\u002A\u002A*%
D13*
X229563917Y-82133813D02*
X229807409Y-82274393D01*
X230073917Y-81250467D02*
X230317409Y-81391047D01*
X140227062Y-55751958D02*
X154914852Y-47271958D01*
X143997062Y-62281790D02*
X140227062Y-55751958D01*
X155434468Y-46971958D02*
X156924031Y-46111958D01*
X156924031Y-46111958D02*
X160694031Y-52641790D01*
X160694031Y-52641790D02*
X143997062Y-62281790D01*
X155174660Y-47121958D02*
X154488609Y-46813683D01*
X155250711Y-46373683D01*
X155174660Y-47121958D01*
G36*
X155174660Y-47121958D02*
G01*
X154488609Y-46813683D01*
X155250711Y-46373683D01*
X155174660Y-47121958D01*
G37*
X134676800Y-143248867D02*
X134676800Y-142967707D01*
X135696800Y-143248867D02*
X135696800Y-142967707D01*
X164472091Y-85170979D02*
X164715583Y-85030399D01*
X164982091Y-86054325D02*
X165225583Y-85913745D01*
X297080000Y-131060000D02*
X307120000Y-131060000D01*
X297080000Y-151620000D02*
X297080000Y-131060000D01*
X300100000Y-151620000D02*
X300100000Y-131060000D01*
X305000000Y-151620000D02*
X305000000Y-131060000D01*
X306500000Y-151620000D02*
X306500000Y-131060000D01*
X307120000Y-131060000D02*
X307120000Y-148660000D01*
X307120000Y-149260000D02*
X307120000Y-151620000D01*
X307120000Y-151620000D02*
X297080000Y-151620000D01*
X307120000Y-148960000D02*
X307730000Y-148520000D01*
X307730000Y-149400000D01*
X307120000Y-148960000D01*
G36*
X307730000Y-149400000D02*
G01*
X307120000Y-148960000D01*
X307730000Y-148520000D01*
X307730000Y-149400000D01*
G37*
%TD*%
M02*
