M48
; DRILL file KiCad 10.0.4 date 2026-07-07T15:19:53
; FORMAT={-:-/ absolute / metric / decimal}
; #@! TF.CreationDate,2026-07-07T15:19:53+03:00
; #@! TF.GenerationSoftware,Kicad,Pcbnew,10.0.4
; #@! TF.FileFunction,Plated,1,6,PTH
FMAT,2
METRIC
; #@! TA.AperFunction,Plated,PTH,ViaDrill
T1C0.300
; #@! TA.AperFunction,Plated,PTH,ViaDrill
T2C0.400
; #@! TA.AperFunction,Plated,PTH,ComponentDrill
T3C1.100
; #@! TA.AperFunction,Plated,PTH,ComponentDrill
T4C1.300
%
G90
G05
T1
X131.728Y-141.321
X132.466Y-142.423
X132.796Y-143.853
X139.576Y-50.92
X144.931Y-48.589
X157.786Y-69.271
X159.202Y-57.592
X161.737Y-81.386
X163.625Y-81.873
X165.32Y-82.346
X233.53Y-74.178
X235.393Y-73.789
X237.058Y-73.144
X281.959Y-138.467
X281.975Y-139.931
X282.041Y-141.418
X283.401Y-138.517
X283.484Y-141.402
X283.5Y-139.931
T2
X123.007Y-96.794
X123.172Y-98.109
X124.278Y-96.463
X124.355Y-97.745
X128.094Y-101.117
X128.112Y-178.913
X128.521Y-99.899
X128.538Y-180.131
X129.298Y-178.741
X129.313Y-101.318
X129.74Y-100.066
X129.757Y-179.963
X130.868Y-100.714
X130.88Y-179.13
X131.411Y-180.227
X131.552Y-99.706
X131.905Y-101.407
X131.995Y-178.572
X132.53Y-179.675
X132.593Y-100.392
X150.393Y-107.518
X150.539Y-106.287
X150.71Y-173.704
X150.845Y-172.495
X151.592Y-107.318
X151.744Y-106.103
X151.817Y-110.367
X151.831Y-169.658
X152.024Y-172.712
X152.04Y-173.932
X152.417Y-109.263
X152.431Y-170.761
X152.945Y-110.976
X152.96Y-169.049
X153.49Y-109.86
X153.504Y-170.164
X155.409Y-109.765
X155.423Y-170.259
X156.05Y-108.641
X156.064Y-171.383
X156.505Y-110.328
X156.519Y-169.697
X157.152Y-109.198
X157.166Y-170.826
X177.8Y-149.6
X178.0Y-147.6
X178.589Y-151.469
X179.8Y-146.8
X179.8Y-148.8
X180.2Y-150.6
X180.901Y-155.199
X181.0Y-152.2
X181.2Y-146.0
X181.4Y-149.4
X181.6Y-147.6
X182.0Y-154.0
X182.6Y-145.6
X182.6Y-150.4
X182.8Y-148.6
X183.0Y-146.8
X183.0Y-152.6
X183.8Y-145.0
X184.0Y-147.6
X184.0Y-151.0
X184.0Y-156.2
X184.8Y-154.6
X185.0Y-149.6
X185.2Y-147.0
X185.4Y-157.6
X185.6Y-153.2
X186.2Y-148.6
X186.2Y-156.2
X186.4Y-151.6
X186.8Y-154.8
X187.0Y-158.8
X187.4Y-150.2
X187.8Y-153.4
X188.0Y-157.0
X188.4Y-160.4
X188.6Y-151.6
X188.6Y-155.4
X189.0Y-158.8
X189.2Y-154.0
X190.0Y-152.6
X190.0Y-157.4
X190.8Y-155.6
X190.8Y-161.4
X191.4Y-159.6
X191.6Y-153.8
X192.0Y-158.0
X192.6Y-156.4
X193.0Y-162.2
X193.2Y-154.6
X193.8Y-160.6
X194.4Y-158.8
X194.749Y-192.509
X194.772Y-198.74
X194.818Y-193.742
X195.0Y-157.0
X195.534Y-199.691
X195.6Y-155.4
X195.6Y-162.8
X195.901Y-198.264
X196.051Y-192.504
X196.111Y-193.734
X196.4Y-161.2
X196.673Y-199.202
X197.0Y-159.4
X197.153Y-195.349
X197.173Y-196.576
X197.6Y-157.6
X197.721Y-58.286
X198.0Y-156.0
X198.156Y-59.443
X198.291Y-163.314
X198.392Y-195.263
X198.428Y-196.545
X198.8Y-161.8
X198.989Y-58.047
X199.328Y-219.425
X199.375Y-61.732
X199.4Y-160.0
X199.402Y-218.18
X199.453Y-59.186
X199.456Y-60.487
X199.8Y-158.0
X200.0Y-156.4
X200.544Y-219.513
X200.547Y-220.814
X200.598Y-61.82
X200.625Y-218.268
X200.672Y-60.575
X201.011Y-221.953
X201.386Y-163.351
X201.572Y-83.455
X201.6Y-162.0
X201.608Y-84.737
X201.844Y-220.557
X202.0Y-160.0
X202.2Y-156.4
X202.2Y-158.0
X202.279Y-221.714
X202.827Y-83.424
X202.847Y-84.651
X203.327Y-80.798
X203.8Y-155.6
X203.889Y-86.266
X203.949Y-87.496
X204.099Y-81.736
X204.2Y-157.0
X204.4Y-159.0
X204.466Y-80.309
X204.6Y-161.2
X204.6Y-162.8
X205.182Y-86.258
X205.228Y-81.26
X205.251Y-87.491
X205.8Y-155.0
X206.2Y-156.6
X206.6Y-158.4
X207.2Y-160.4
X207.6Y-162.0
X207.8Y-154.2
X208.2Y-156.0
X208.8Y-157.6
X209.4Y-159.2
X209.6Y-153.2
X209.8Y-161.2
X210.2Y-155.0
X210.8Y-156.8
X211.0Y-151.4
X211.4Y-158.6
X211.8Y-153.0
X211.8Y-160.2
X212.4Y-149.8
X212.6Y-154.8
X213.4Y-156.8
X213.6Y-148.2
X213.8Y-151.2
X214.2Y-146.6
X214.2Y-158.4
X214.6Y-153.0
X214.8Y-149.4
X215.4Y-154.8
X215.8Y-147.4
X216.2Y-156.4
X216.293Y-150.757
X216.4Y-145.6
X217.4Y-148.2
X217.4Y-152.4
X218.2Y-146.4
X218.404Y-153.522
X218.6Y-149.2
X219.6Y-147.2
X219.934Y-150.239
X221.2Y-148.0
X242.834Y-109.174
X242.848Y-170.802
X243.481Y-110.303
X243.495Y-169.672
X243.936Y-108.617
X243.95Y-171.359
X244.577Y-109.741
X244.591Y-170.235
X246.496Y-109.836
X246.51Y-170.14
X247.04Y-110.951
X247.055Y-169.024
X247.569Y-109.239
X247.583Y-170.737
X247.918Y-107.286
X247.96Y-106.068
X248.169Y-110.342
X248.183Y-169.633
X248.256Y-173.897
X248.408Y-172.682
X249.155Y-107.505
X249.25Y-106.301
X249.461Y-173.713
X249.607Y-172.482
X267.407Y-179.608
X267.47Y-100.325
X268.005Y-101.428
X268.095Y-178.593
X268.448Y-180.294
X268.589Y-99.773
X269.12Y-100.87
X269.132Y-179.286
X270.243Y-100.037
X270.26Y-179.934
X270.687Y-178.682
X270.691Y-101.267
X271.462Y-99.869
X271.479Y-180.101
X271.888Y-101.087
X271.906Y-178.883
X275.37Y-182.18
X275.47Y-183.473
X276.514Y-181.666
X276.63Y-182.943
T3
X143.836Y-57.964
X147.136Y-56.059
X150.436Y-54.154
X153.735Y-52.249
X157.035Y-50.344
T4
X302.4Y-133.72
X302.4Y-138.8
X302.4Y-143.88
X302.4Y-148.96
M30
