%TF.GenerationSoftware,KiCad,Pcbnew,10.0.4*%
%TF.CreationDate,2026-07-07T13:00:24+03:00*%
%TF.ProjectId,PcbMot,5063624d-6f74-42e6-9b69-6361645f7063,rev?*%
%TF.SameCoordinates,Original*%
%TF.FileFunction,Copper,L3,Inr*%
%TF.FilePolarity,Positive*%
%FSLAX46Y46*%
G04 Gerber Fmt 4.6, Leading zero omitted, Abs format (unit mm)*
G04 Created by KiCad (PCBNEW 10.0.4) date 2026-07-07 13:00:24*
%MOMM*%
%LPD*%
G01*
G04 APERTURE LIST*
G04 Aperture macros list*
%AMRoundRect*
0 Rectangle with rounded corners*
0 $1 Rounding radius*
0 $2 $3 $4 $5 $6 $7 $8 $9 X,Y pos of 4 corners*
0 Add a 4 corners polygon primitive as box body*
4,1,4,$2,$3,$4,$5,$6,$7,$8,$9,$2,$3,0*
0 Add four circle primitives for the rounded corners*
1,1,$1+$1,$2,$3*
1,1,$1+$1,$4,$5*
1,1,$1+$1,$6,$7*
1,1,$1+$1,$8,$9*
0 Add four rect primitives between the rounded corners*
20,1,$1+$1,$2,$3,$4,$5,0*
20,1,$1+$1,$4,$5,$6,$7,0*
20,1,$1+$1,$6,$7,$8,$9,0*
20,1,$1+$1,$8,$9,$2,$3,0*%
G04 Aperture macros list end*
%TA.AperFunction,NonConductor*%
%ADD10C,2.200000*%
%TD*%
%TA.AperFunction,NonConductor*%
%ADD11C,12.000000*%
%TD*%
%TA.AperFunction,NonConductor*%
%ADD12C,4.000000*%
%TD*%
%TA.AperFunction,NonConductor*%
%ADD13C,1.000000*%
%TD*%
%TA.AperFunction,NonConductor*%
%ADD14C,2.000000*%
%TD*%
%TA.AperFunction,NonConductor*%
%ADD15C,0.200000*%
%TD*%
%TA.AperFunction,NonConductor*%
%ADD16C,7.000000*%
%TD*%
%TA.AperFunction,NonConductor*%
%ADD17C,5.000000*%
%TD*%
%TA.AperFunction,NonConductor*%
%ADD18C,2.500000*%
%TD*%
%TA.AperFunction,NonConductor*%
%ADD19C,9.000000*%
%TD*%
%TA.AperFunction,NonConductor*%
%ADD20C,3.000000*%
%TD*%
%TA.AperFunction,NonConductor*%
%ADD21C,6.000000*%
%TD*%
%TA.AperFunction,NonConductor*%
%ADD22C,16.000000*%
%TD*%
%TA.AperFunction,ComponentPad*%
%ADD23RoundRect,0.250000X0.274519X1.024519X-1.024519X0.274519X-0.274519X-1.024519X1.024519X-0.274519X0*%
%TD*%
%TA.AperFunction,ComponentPad*%
%ADD24C,2.000000*%
%TD*%
%TA.AperFunction,ComponentPad*%
%ADD25RoundRect,0.250000X1.050000X-1.050000X1.050000X1.050000X-1.050000X1.050000X-1.050000X-1.050000X0*%
%TD*%
%TA.AperFunction,ComponentPad*%
%ADD26C,2.600000*%
%TD*%
%TA.AperFunction,ViaPad*%
%ADD27C,0.600000*%
%TD*%
G04 APERTURE END LIST*
D10*
X259999154Y-100529383D02*
X259665724Y-101773760D01*
X134864795Y-179320104D02*
G75*
G02*
X136796856Y-181768801I17406705J11747604D01*
G01*
D11*
X111157931Y-104743072D02*
X115216433Y-100684570D01*
D12*
X302463790Y-143923296D02*
X295800000Y-144000000D01*
D10*
X137586031Y-178823570D02*
G75*
G02*
X139581836Y-181034372I14685469J11251070D01*
G01*
D13*
X234300000Y-228100000D02*
X236500000Y-229100000D01*
D10*
X148199736Y-102227826D02*
X148353322Y-102801022D01*
X257250910Y-101126712D02*
X256881753Y-102504424D01*
D14*
X241014985Y-224868563D02*
X243269450Y-224934871D01*
D10*
X257265102Y-178848707D02*
X256895945Y-177470995D01*
D12*
X299005415Y-153969686D02*
X304497774Y-155374669D01*
D10*
X148367514Y-177223559D02*
X148866659Y-175360729D01*
X251632486Y-102776441D02*
X251133341Y-104639271D01*
X148213928Y-177796755D02*
X148367514Y-177223559D01*
X262976271Y-99077892D02*
X263203140Y-98231203D01*
X139986654Y-100553964D02*
X140320084Y-101798341D01*
X263217332Y-181744216D02*
G75*
G02*
X265149395Y-179295521I-15474632J14196316D01*
G01*
D13*
X142415660Y-180117665D02*
X142402621Y-180166328D01*
D10*
X265135205Y-100679896D02*
G75*
G02*
X263203144Y-98231199I-17406705J-11747604D01*
G01*
D15*
X269999286Y-101578395D02*
X270345627Y-103025541D01*
D10*
X148353322Y-102801022D02*
X148852467Y-104663852D01*
X145518870Y-101881957D02*
X145938507Y-103448070D01*
X203710680Y-61676748D02*
X202155299Y-63232129D01*
X195008243Y-212533261D02*
X194700660Y-212840844D01*
D13*
X257598532Y-180093084D02*
X257611571Y-180141747D01*
D10*
X196076934Y-215000104D02*
X196776010Y-214301028D01*
X260319768Y-180589619D02*
X260432352Y-181009786D01*
X195845404Y-211696100D02*
X196756351Y-210785153D01*
X260305576Y-99385800D02*
X259999154Y-100529383D01*
D16*
X297378550Y-145619297D02*
G75*
G02*
X242048128Y-228012007I-97378550J5619297D01*
G01*
D13*
X205922363Y-70071667D02*
X205957987Y-70036043D01*
D10*
X262720391Y-100032847D02*
X262413969Y-101176430D01*
X206483388Y-73046176D02*
X205770628Y-73758936D01*
X134039606Y-182399751D02*
X134608915Y-180275061D01*
D12*
X277789017Y-187237752D02*
X276000000Y-181800000D01*
D14*
X119714155Y-102868428D02*
X121622328Y-98678604D01*
D17*
X225200000Y-226100000D02*
X230869230Y-224300000D01*
D10*
X205011416Y-70982614D02*
X204002861Y-71991169D01*
D18*
X244761361Y-105687417D02*
X247548749Y-110515314D01*
D10*
X203710681Y-61676748D02*
G75*
G02*
X198515403Y-61425710I-3724881J-23202952D01*
G01*
D14*
X107014326Y-101785057D02*
X104482312Y-106130427D01*
D10*
X254047301Y-103423489D02*
G75*
G02*
X251786075Y-102203237I-6318801J-9004011D01*
G01*
D19*
X303478739Y-157785456D02*
G75*
G02*
X248456902Y-233201128I-103576299J17788016D01*
G01*
D10*
X254481130Y-178118043D02*
X254061493Y-176551930D01*
X206811530Y-76253569D02*
X206391921Y-76673176D01*
D18*
X207306504Y-84079233D02*
X201731729Y-84079233D01*
D10*
X139680232Y-99410381D02*
X139986654Y-100553964D01*
X260319768Y-180589619D02*
X260013346Y-179446036D01*
X196289319Y-218323252D02*
G75*
G02*
X201484597Y-218574290I3724881J23202952D01*
G01*
X156718189Y-174816544D02*
X155218367Y-174476395D01*
X195008243Y-212533261D02*
X195845404Y-211696100D01*
X142734898Y-101151293D02*
X143104055Y-102529005D01*
X265960394Y-97600249D02*
X265391085Y-99724939D01*
D20*
X238800000Y-222600000D02*
X240800000Y-226200000D01*
D10*
X193188470Y-203746431D02*
X193608079Y-203326824D01*
D13*
X257584340Y-99882335D02*
X257597379Y-99833672D01*
D10*
X254727827Y-100883728D02*
X254466938Y-101857376D01*
X254742019Y-179091691D02*
G75*
G02*
X256895942Y-177470991I-6999319J11543791D01*
G01*
X142388429Y-99858253D02*
G75*
G02*
X140320087Y-101798343I9868871J-12593847D01*
G01*
X259665724Y-101773760D02*
G75*
G02*
X257597383Y-99833667I-11937224J-10653740D01*
G01*
X137023729Y-180922108D02*
X136796860Y-181768797D01*
X257584340Y-99882335D02*
X257250910Y-101126712D01*
X262990463Y-180897527D02*
X262734583Y-179942572D01*
X260305576Y-99385800D02*
X260418160Y-98965633D01*
D15*
X270013478Y-178397024D02*
X270359819Y-176949878D01*
D10*
X194077637Y-209928333D02*
X194988584Y-209017386D01*
X262734583Y-179942572D02*
X262428161Y-178798989D01*
D18*
X201604544Y-218708887D02*
X199464768Y-218901879D01*
D10*
X202155299Y-63232129D02*
X201456222Y-63931206D01*
X134594723Y-99749520D02*
X134850603Y-100704477D01*
X206811530Y-76253569D02*
G75*
G02*
X204624152Y-74905412I-6825730J-8626131D01*
G01*
X145272173Y-179116272D02*
X145533062Y-178142624D01*
X134025414Y-97624829D02*
G75*
G02*
X131210375Y-101998556I18231886J-14827271D01*
G01*
X204154596Y-68303900D02*
X203243649Y-69214847D01*
D13*
X194077637Y-209928333D02*
X194042013Y-209963957D01*
D10*
X194229372Y-206241064D02*
X195375847Y-205094591D01*
D18*
X131048024Y-177989449D02*
X131950776Y-179939046D01*
X268951976Y-102010551D02*
X268049224Y-100060954D01*
D10*
X265974586Y-182375170D02*
X265405277Y-180250480D01*
X205922363Y-70071667D02*
X205011416Y-70982614D01*
D13*
X294400000Y-143961648D02*
X294400000Y-146000000D01*
D15*
X198246059Y-60168038D02*
X196819623Y-60591671D01*
D10*
X194042013Y-209963957D02*
G75*
G02*
X196756351Y-210785152I5972177J14843617D01*
G01*
X204991757Y-67466739D02*
X204154596Y-68303900D01*
X191517278Y-194891420D02*
G75*
G02*
X194971781Y-201963112I8496922J-228880D01*
G01*
D12*
X231600000Y-225000000D02*
X233600000Y-230200000D01*
D10*
X145952699Y-176576511D02*
G75*
G02*
X148213928Y-177796755I6318781J9004051D01*
G01*
X243281811Y-105183456D02*
X244781633Y-105523605D01*
X196776010Y-214301028D02*
X197613171Y-213463867D01*
X205957987Y-70036043D02*
G75*
G02*
X203243649Y-69214848I-5972177J-14843617D01*
G01*
X148866659Y-175360732D02*
G75*
G02*
X156718189Y-174816545I3404821J7788272D01*
G01*
X145257981Y-100908309D02*
X145518870Y-101881957D01*
D18*
X244775553Y-174288002D02*
X247562941Y-169460105D01*
D15*
X201753941Y-219831962D02*
X203180377Y-219408329D01*
D18*
X192693496Y-195920767D02*
X198268271Y-195920767D01*
D21*
X246918224Y-234178631D02*
X236336706Y-231478816D01*
D12*
X116767401Y-110086048D02*
X118756289Y-102526960D01*
D10*
X260013346Y-179446036D02*
X259679916Y-178201659D01*
X265974586Y-182375171D02*
G75*
G02*
X268789625Y-178001444I-18231886J14827271D01*
G01*
X257611571Y-180141747D02*
G75*
G02*
X259679913Y-178201657I-9868871J12593847D01*
G01*
D18*
X198395456Y-61291113D02*
X200535232Y-61098121D01*
D10*
X251133341Y-104639268D02*
G75*
G02*
X243281811Y-105183455I-3404821J-7788272D01*
G01*
X195457115Y-215619923D02*
G75*
G02*
X198543778Y-216068794I4557075J20499583D01*
G01*
X134025414Y-97624830D02*
X134594723Y-99749520D01*
X142415660Y-180117665D02*
X142749090Y-178873288D01*
X193608079Y-203326824D02*
X194971765Y-201963136D01*
D18*
X268966168Y-177964868D02*
X268063416Y-179914465D01*
D10*
X251800264Y-177772174D02*
G75*
G02*
X254061490Y-176551926I-4057564J10224274D01*
G01*
X254742019Y-179091691D02*
X254481130Y-178118043D01*
X139694424Y-180614200D02*
X139581840Y-181034367D01*
X145533062Y-178142624D02*
X145952699Y-176576511D01*
X137279609Y-179967153D02*
X137586031Y-178823570D01*
X134608915Y-180275061D02*
X134864795Y-179320104D01*
X262413969Y-101176430D02*
G75*
G02*
X260418164Y-98965628I-14685469J-11251070D01*
G01*
X131224563Y-178026027D02*
G75*
G02*
X134039599Y-182399758I21046937J10453527D01*
G01*
D14*
X245090615Y-235545062D02*
X232235193Y-236017506D01*
D10*
X156703997Y-105208037D02*
X155204175Y-105548186D01*
X243296003Y-174791963D02*
G75*
G02*
X251147532Y-175336149I4446707J7244083D01*
G01*
X148199736Y-102227826D02*
G75*
G02*
X145938510Y-103448074I4057564J-10224274D01*
G01*
X243296003Y-174791963D02*
X244795825Y-174451814D01*
X203923066Y-64999896D02*
X204542885Y-64380077D01*
X265405277Y-180250480D02*
X265149397Y-179295523D01*
X254466938Y-101857376D02*
X254047301Y-103423489D01*
X193516612Y-206953824D02*
G75*
G02*
X195997139Y-208008831I6497588J11833484D01*
G01*
X145257981Y-100908309D02*
G75*
G02*
X143104058Y-102529009I6999319J-11543791D01*
G01*
X136782668Y-98255784D02*
G75*
G02*
X134850605Y-100704479I15474632J-14196316D01*
G01*
X142401468Y-99906916D02*
X142734898Y-101151293D01*
X137265417Y-100057428D02*
X137571839Y-101201011D01*
X251646678Y-177198978D02*
X251147533Y-175336148D01*
X193188470Y-203746431D02*
G75*
G02*
X195375848Y-205094588I6825730J8626131D01*
G01*
X197844701Y-216767871D02*
X198543778Y-216068794D01*
X140000846Y-179470617D02*
X140334276Y-178226240D01*
X204542885Y-64380077D02*
G75*
G02*
X201456222Y-63931206I-4557075J-20499583D01*
G01*
X206391921Y-76673176D02*
X205028235Y-78036864D01*
D14*
X236280755Y-234577490D02*
X242048128Y-230809367D01*
D18*
X155238639Y-174312583D02*
X152451251Y-169484686D01*
D10*
X262990463Y-180897527D02*
X263217332Y-181744216D01*
X142749090Y-178873288D02*
X143118247Y-177495576D01*
D12*
X114706405Y-97624829D02*
X124049587Y-97624829D01*
D15*
X129986522Y-101602976D02*
X129640181Y-103050122D01*
D10*
X208482722Y-85108580D02*
G75*
G02*
X205028219Y-78036888I-8496922J228880D01*
G01*
X204991757Y-67466739D02*
X205299340Y-67159156D01*
D22*
X232600000Y-228678998D02*
G75*
G02*
X110569714Y-109521342I-32600000J88678998D01*
G01*
D10*
X257598532Y-180093084D02*
X257265102Y-178848707D01*
X205770628Y-73758936D02*
X204624153Y-74905409D01*
D13*
X116097556Y-95314309D02*
X122474775Y-96170075D01*
D10*
X143118247Y-177495576D02*
G75*
G02*
X145272169Y-179116279I9153253J9923076D01*
G01*
X268775437Y-101973973D02*
G75*
G02*
X265960401Y-97600242I-21046937J-10453527D01*
G01*
X194988584Y-209017386D02*
X195997139Y-208008831D01*
X137009537Y-99102473D02*
X137265417Y-100057428D01*
X137009537Y-99102473D02*
X136782668Y-98255784D01*
D20*
X240310465Y-220840365D02*
X239266118Y-222829599D01*
D10*
X139680232Y-99410381D02*
X139567648Y-98990214D01*
X139694424Y-180614200D02*
X140000846Y-179470617D01*
X251800264Y-177772174D02*
X251646678Y-177198978D01*
X194700660Y-212840844D02*
G75*
G02*
X197613171Y-213463867I5313530J17720504D01*
G01*
X208482722Y-85108580D02*
X207438233Y-83979771D01*
X203923066Y-64999896D02*
X203223990Y-65698972D01*
X203223990Y-65698972D02*
X202386829Y-66536133D01*
X139567648Y-98990214D02*
G75*
G02*
X137571842Y-101201013I12689652J-13461886D01*
G01*
X156703997Y-105208037D02*
G75*
G02*
X148852468Y-104663851I-4446707J-7244083D01*
G01*
X256881753Y-102504424D02*
G75*
G02*
X254727831Y-100883721I-9153253J-9923076D01*
G01*
X193516612Y-206953824D02*
X194229372Y-206241064D01*
X137023729Y-180922108D02*
X137279609Y-179967153D01*
D18*
X155224447Y-105711998D02*
X152437059Y-110539895D01*
D14*
X231505902Y-221765507D02*
X237589642Y-220503178D01*
D13*
X234300000Y-223800000D02*
X233300000Y-225400000D01*
D10*
X140334276Y-178226240D02*
G75*
G02*
X142402617Y-180166333I11937224J10653740D01*
G01*
X196076934Y-215000104D02*
X195457115Y-215619923D01*
D18*
X131033832Y-102035132D02*
X131936584Y-100085535D01*
D10*
X196289320Y-218323252D02*
X197844701Y-216767871D01*
D13*
X142401468Y-99906916D02*
X142388429Y-99858253D01*
D10*
X260432352Y-181009786D02*
G75*
G02*
X262428158Y-178798987I-12689652J13461886D01*
G01*
X206483388Y-73046176D02*
G75*
G02*
X204002861Y-71991169I-6497588J-11833484D01*
G01*
D20*
X227800000Y-236400000D02*
X236336706Y-232600000D01*
D10*
X262976271Y-99077892D02*
X262720391Y-100032847D01*
X205299340Y-67159156D02*
G75*
G02*
X202386829Y-66536133I-5313530J-17720504D01*
G01*
X191517278Y-194891420D02*
X192561767Y-196020229D01*
D12*
X277789017Y-187548795D02*
G75*
G02*
X237589642Y-221527532I-74989017J47948795D01*
G01*
D10*
X251786072Y-102203245D02*
X251632486Y-102776441D01*
D15*
X130000714Y-178421605D02*
X129654373Y-176974459D01*
D10*
X265391085Y-99724939D02*
X265135205Y-100679896D01*
D23*
%TO.N,N/C*%
%TO.C,REF\u002A\u002A*%
X157034660Y-50343573D03*
D24*
X153735103Y-52248573D03*
X150435546Y-54153573D03*
X147135990Y-56058573D03*
X143836433Y-57963573D03*
%TD*%
D25*
%TO.N,N/C*%
%TO.C,REF\u002A\u002A*%
X302400000Y-148960000D03*
D26*
X302400000Y-143880000D03*
X302400000Y-138800000D03*
X302400000Y-133720000D03*
%TD*%
D27*
%TO.N,*%
X209600000Y-153200000D03*
X214600000Y-153000000D03*
X243480695Y-110303236D03*
X198800000Y-161800000D03*
X283483596Y-141401504D03*
X201571552Y-83455471D03*
X185400000Y-157600000D03*
X197721236Y-58286097D03*
X205800000Y-155000000D03*
X268094643Y-178593162D03*
X247054602Y-169024196D03*
X194772114Y-198739956D03*
X276513965Y-181666187D03*
X198428448Y-196544529D03*
X131995080Y-178571747D03*
X191600000Y-153800000D03*
X242848341Y-170801857D03*
X128111503Y-178913277D03*
X190000000Y-152600000D03*
X267406573Y-179608115D03*
X129739745Y-100066447D03*
X197600000Y-157600000D03*
X283500173Y-139930818D03*
X202827102Y-83423545D03*
X248408254Y-172681892D03*
X195534040Y-199691391D03*
X185600000Y-153200000D03*
X269132421Y-179285904D03*
X198989002Y-58046569D03*
X131728176Y-141320904D03*
X203800000Y-155600000D03*
X202846749Y-84651467D03*
X151830969Y-169657850D03*
X194817744Y-193741514D03*
X180901209Y-155198554D03*
X151816777Y-110366731D03*
X244576624Y-109740685D03*
X271479252Y-180101166D03*
X152431095Y-170761151D03*
X214800000Y-149400000D03*
X283400711Y-138517115D03*
X130879942Y-179130499D03*
X190800000Y-155600000D03*
X247917650Y-107285708D03*
X129298352Y-178741154D03*
X132530020Y-179675110D03*
X204200000Y-157000000D03*
X187800000Y-153400000D03*
X206600000Y-158400000D03*
X124277612Y-96462797D03*
X186800000Y-154800000D03*
X214200000Y-146600000D03*
X152416903Y-109263430D03*
X182600000Y-145600000D03*
X187400000Y-150200000D03*
X211800000Y-153000000D03*
X206200000Y-156600000D03*
X197153251Y-195348533D03*
X246495669Y-109835795D03*
X208800000Y-157600000D03*
X186200000Y-156200000D03*
X198391610Y-195262578D03*
X128537949Y-180130958D03*
X210200000Y-155000000D03*
X152039919Y-173931661D03*
X198290745Y-163313663D03*
X184000000Y-147600000D03*
X249606605Y-172482147D03*
X199456380Y-60486615D03*
X202278764Y-221713903D03*
X156063803Y-171383302D03*
X197000000Y-159400000D03*
X188000000Y-157000000D03*
X196400000Y-161200000D03*
X205251020Y-87491319D03*
X247040410Y-110951223D03*
X204400000Y-159000000D03*
X201386490Y-163350961D03*
X214200000Y-158400000D03*
X188400000Y-160400000D03*
X270690745Y-101266894D03*
X130867579Y-100714096D03*
X282041402Y-141418081D03*
X216292665Y-150756815D03*
X153504331Y-170164205D03*
X131411199Y-180227481D03*
X199327977Y-219424975D03*
X275469617Y-183473074D03*
X157786279Y-69270523D03*
X205227886Y-81260044D03*
X247960081Y-106068339D03*
X155423376Y-170259315D03*
X150538719Y-106286670D03*
X212600000Y-154800000D03*
X156505114Y-110327815D03*
X199400000Y-160000000D03*
X213800000Y-151200000D03*
X196050577Y-192503769D03*
X196111359Y-193734147D03*
X150393395Y-107517853D03*
X205182256Y-86258486D03*
X221200000Y-148000000D03*
X159201736Y-57592434D03*
X268448035Y-180294476D03*
X155409185Y-109765264D03*
X200000000Y-156400000D03*
X276630004Y-182942612D03*
X215400000Y-154800000D03*
X156519305Y-169696764D03*
X202200000Y-156400000D03*
X233529965Y-74178351D03*
X128094302Y-101116516D03*
X151591746Y-107318108D03*
X268004920Y-101428253D03*
X249461281Y-173713330D03*
X132466228Y-142423221D03*
X152023929Y-172712062D03*
X200598347Y-61820138D03*
X179800000Y-148800000D03*
X211000000Y-151400000D03*
X270686622Y-178681581D03*
X193000000Y-162200000D03*
X271905698Y-178883484D03*
X163625494Y-81873469D03*
X131551965Y-99705524D03*
X201600000Y-162000000D03*
X248183223Y-169633269D03*
X271462051Y-99869042D03*
X181200000Y-146000000D03*
X249249769Y-106301278D03*
X207600000Y-162000000D03*
X216400000Y-145600000D03*
X217400000Y-148200000D03*
X178000000Y-147600000D03*
X215800000Y-147400000D03*
X203949423Y-87496231D03*
X178588725Y-151468741D03*
X204600000Y-161200000D03*
X243494886Y-169672185D03*
X182800000Y-148600000D03*
X189200000Y-154000000D03*
X268588801Y-99772519D03*
X218600000Y-149200000D03*
X201844079Y-220557201D03*
X189000000Y-158800000D03*
X275370156Y-182180072D03*
X200672023Y-60575025D03*
X203327062Y-80798346D03*
X202200000Y-158000000D03*
X185200000Y-147000000D03*
X151743649Y-106102540D03*
X190800000Y-161400000D03*
X193200000Y-154600000D03*
X187000000Y-158800000D03*
X235393009Y-73788985D03*
X270260255Y-179933553D03*
X219933632Y-150239348D03*
X183000000Y-146800000D03*
X195900778Y-198263724D03*
X192000000Y-158000000D03*
X193800000Y-160600000D03*
X177800000Y-149600000D03*
X181400000Y-149400000D03*
X156049612Y-108641277D03*
X150844619Y-172494946D03*
X269120058Y-100869501D03*
X185000000Y-149600000D03*
X211400000Y-158600000D03*
X152959590Y-169048777D03*
X243936197Y-108616698D03*
X195000000Y-157000000D03*
X157151659Y-109198143D03*
X200624663Y-218268272D03*
X183800000Y-145000000D03*
X281975094Y-139930818D03*
X207800000Y-154200000D03*
X181600000Y-147600000D03*
X183000000Y-152600000D03*
X237058090Y-73143875D03*
X161737381Y-81385776D03*
X123172482Y-98109440D03*
X247583097Y-170736570D03*
X165320131Y-82345568D03*
X184000000Y-156200000D03*
X188600000Y-151600000D03*
X198000000Y-156000000D03*
X212400000Y-149800000D03*
X196672938Y-199201654D03*
X211800000Y-160200000D03*
X153490139Y-109860376D03*
X144931206Y-48588651D03*
X216200000Y-156400000D03*
X197172898Y-196576455D03*
X190000000Y-157400000D03*
X199800000Y-158000000D03*
X271888497Y-101086723D03*
X128520748Y-99898834D03*
X219600000Y-147200000D03*
X194748980Y-192508681D03*
X129313378Y-101318419D03*
X157165850Y-170826436D03*
X204600000Y-162800000D03*
X132796408Y-143852530D03*
X199453344Y-59186058D03*
X195600000Y-155400000D03*
X201010998Y-221953431D03*
X181000000Y-152200000D03*
X179800000Y-146800000D03*
X199375337Y-61731728D03*
X248256351Y-173897460D03*
X210800000Y-156800000D03*
X209400000Y-159200000D03*
X270243054Y-100036654D03*
X209800000Y-161200000D03*
X123006713Y-96794336D03*
X247568905Y-109238849D03*
X152945398Y-110975804D03*
X180200000Y-150600000D03*
X199401653Y-218179862D03*
X191400000Y-159600000D03*
X242834150Y-109173564D03*
X132593427Y-100391885D03*
X249155381Y-107505054D03*
X207200000Y-160400000D03*
X129756946Y-179963346D03*
X195600000Y-162800000D03*
X246509861Y-170139624D03*
X243950388Y-171358723D03*
X213400000Y-156800000D03*
X150709548Y-173703840D03*
X184800000Y-154600000D03*
X218404409Y-153521584D03*
X192600000Y-156400000D03*
X213600000Y-148200000D03*
X182000000Y-154000000D03*
X218200000Y-146400000D03*
X203888641Y-86265853D03*
X131905357Y-101406838D03*
X281958517Y-138467384D03*
X204465960Y-80308609D03*
X188600000Y-155400000D03*
X182600000Y-150400000D03*
X204099222Y-81736276D03*
X184000000Y-151000000D03*
X244590815Y-170234736D03*
X200543620Y-219513385D03*
X198155921Y-59442799D03*
X186400000Y-151600000D03*
X201608390Y-84737422D03*
X124354971Y-97744747D03*
X208200000Y-156000000D03*
X202000000Y-160000000D03*
X186200000Y-148600000D03*
X200546656Y-220813942D03*
X139576193Y-50920390D03*
X194400000Y-158800000D03*
X217400000Y-152400000D03*
X267469980Y-100324890D03*
X248169031Y-110342150D03*
%TD*%
M02*
