%TF.GenerationSoftware,KiCad,Pcbnew,10.0.4*%
%TF.CreationDate,2026-07-07T13:00:24+03:00*%
%TF.ProjectId,PcbMot,5063624d-6f74-42e6-9b69-6361645f7063,rev?*%
%TF.SameCoordinates,Original*%
%TF.FileFunction,Copper,L6,Bot*%
%TF.FilePolarity,Positive*%
%FSLAX46Y46*%
G04 Gerber Fmt 4.6, Leading zero omitted, Abs format (unit mm)*
G04 Created by KiCad (PCBNEW 10.0.4) date 2026-07-07 13:00:24*
%MOMM*%
%LPD*%
G01*
G04 APERTURE LIST*
G04 Aperture macros list*
%AMRoundRect*
0 Rectangle with rounded corners*
0 $1 Rounding radius*
0 $2 $3 $4 $5 $6 $7 $8 $9 X,Y pos of 4 corners*
0 Add a 4 corners polygon primitive as box body*
4,1,4,$2,$3,$4,$5,$6,$7,$8,$9,$2,$3,0*
0 Add four circle primitives for the rounded corners*
1,1,$1+$1,$2,$3*
1,1,$1+$1,$4,$5*
1,1,$1+$1,$6,$7*
1,1,$1+$1,$8,$9*
0 Add four rect primitives between the rounded corners*
20,1,$1+$1,$2,$3,$4,$5,0*
20,1,$1+$1,$4,$5,$6,$7,0*
20,1,$1+$1,$6,$7,$8,$9,0*
20,1,$1+$1,$8,$9,$2,$3,0*%
G04 Aperture macros list end*
%TA.AperFunction,NonConductor*%
%ADD10C,2.200000*%
%TD*%
%TA.AperFunction,NonConductor*%
%ADD11C,10.000000*%
%TD*%
%TA.AperFunction,NonConductor*%
%ADD12C,5.000000*%
%TD*%
%TA.AperFunction,NonConductor*%
%ADD13C,4.000000*%
%TD*%
%TA.AperFunction,NonConductor*%
%ADD14C,2.500000*%
%TD*%
%TA.AperFunction,NonConductor*%
%ADD15C,0.300000*%
%TD*%
%TA.AperFunction,NonConductor*%
%ADD16C,0.500000*%
%TD*%
%TA.AperFunction,NonConductor*%
%ADD17C,0.200000*%
%TD*%
%TA.AperFunction,NonConductor*%
%ADD18C,1.000000*%
%TD*%
%TA.AperFunction,NonConductor*%
%ADD19C,3.000000*%
%TD*%
%TA.AperFunction,NonConductor*%
%ADD20C,2.000000*%
%TD*%
%TA.AperFunction,NonConductor*%
%ADD21C,3.250000*%
%TD*%
%TA.AperFunction,NonConductor*%
%ADD22C,18.500000*%
%TD*%
%TA.AperFunction,NonConductor*%
%ADD23C,4.500000*%
%TD*%
%TA.AperFunction,ComponentPad*%
%ADD24RoundRect,0.250000X0.274519X1.024519X-1.024519X0.274519X-0.274519X-1.024519X1.024519X-0.274519X0*%
%TD*%
%TA.AperFunction,ComponentPad*%
%ADD25C,2.000000*%
%TD*%
%TA.AperFunction,SMDPad,CuDef*%
%ADD26RoundRect,0.050000X0.060000X0.150000X-0.060000X0.150000X-0.060000X-0.150000X0.060000X-0.150000X0*%
%TD*%
%TA.AperFunction,SMDPad,CuDef*%
%ADD27RoundRect,0.136364X0.263636X0.163636X-0.263636X0.163636X-0.263636X-0.163636X0.263636X-0.163636X0*%
%TD*%
%TA.AperFunction,SMDPad,CuDef*%
%ADD28RoundRect,0.050000X0.099904X-0.126962X0.159904X-0.023038X-0.099904X0.126962X-0.159904X0.023038X0*%
%TD*%
%TA.AperFunction,SMDPad,CuDef*%
%ADD29RoundRect,0.136364X0.009895X-0.310133X0.273531X0.146497X-0.009895X0.310133X-0.273531X-0.146497X0*%
%TD*%
%TA.AperFunction,SMDPad,CuDef*%
%ADD30RoundRect,0.225000X-0.069856X-0.329006X0.319856X-0.104006X0.069856X0.329006X-0.319856X0.104006X0*%
%TD*%
%TA.AperFunction,ComponentPad*%
%ADD31RoundRect,0.250000X1.050000X-1.050000X1.050000X1.050000X-1.050000X1.050000X-1.050000X-1.050000X0*%
%TD*%
%TA.AperFunction,ComponentPad*%
%ADD32C,2.600000*%
%TD*%
%TA.AperFunction,SMDPad,CuDef*%
%ADD33RoundRect,0.050000X0.159904X0.023038X0.099904X0.126962X-0.159904X-0.023038X-0.099904X-0.126962X0*%
%TD*%
%TA.AperFunction,SMDPad,CuDef*%
%ADD34RoundRect,0.136364X0.273531X-0.146497X0.009895X0.310133X-0.273531X0.146497X-0.009895X-0.310133X0*%
%TD*%
%TA.AperFunction,SMDPad,CuDef*%
%ADD35RoundRect,0.225000X-0.319856X-0.104006X0.069856X-0.329006X0.319856X0.104006X-0.069856X0.329006X0*%
%TD*%
%TA.AperFunction,SMDPad,CuDef*%
%ADD36RoundRect,0.225000X0.250000X-0.225000X0.250000X0.225000X-0.250000X0.225000X-0.250000X-0.225000X0*%
%TD*%
%TA.AperFunction,ViaPad*%
%ADD37C,0.600000*%
%TD*%
G04 APERTURE END LIST*
D10*
X205020148Y-212533263D02*
X205327731Y-212840846D01*
X258699843Y-168518075D02*
G75*
G02*
X258625985Y-165949672I-10957143J970175D01*
G01*
D11*
X216947992Y-150239412D02*
G75*
G02*
X200200000Y-120200000I-16947992J10239412D01*
G01*
D10*
X261225412Y-112137874D02*
G75*
G02*
X260898820Y-109462169I-13496912J-289626D01*
G01*
X141374010Y-114050329D02*
X141947204Y-113896740D01*
D12*
X283864337Y-100877318D02*
G75*
G02*
X290621251Y-158595254I-82431737J-38904582D01*
G01*
D13*
X178447303Y-125574235D02*
X182809601Y-124534709D01*
D14*
X193501584Y-193115274D02*
X195893230Y-193115274D01*
D10*
X130314728Y-175948076D02*
X132439418Y-176517385D01*
X205950754Y-209928335D02*
X205039807Y-209017388D01*
D11*
X220600000Y-152200000D02*
X217075675Y-150025031D01*
D15*
X150215066Y-52303537D02*
X150672488Y-54010660D01*
D10*
X266913534Y-105897430D02*
X267760223Y-106124299D01*
X201484613Y-216068796D02*
G75*
G02*
X204571276Y-215619925I-1470413J20948456D01*
G01*
X204182987Y-211696102D02*
X203272040Y-210785155D01*
D15*
X102031457Y-131322240D02*
X102031457Y-103571182D01*
X223027330Y-49459894D02*
X217831310Y-50852164D01*
D10*
X130314733Y-175948079D02*
G75*
G02*
X135985746Y-184514263I21956757J8375619D01*
G01*
D15*
X192540998Y-112915675D02*
X193716653Y-113720071D01*
D10*
X269699463Y-175923497D02*
X267574773Y-176492806D01*
D15*
X140342143Y-141324556D02*
X117767102Y-141324556D01*
D16*
X207350107Y-164729609D02*
X208825863Y-162319969D01*
D10*
X194960193Y-70982612D02*
X195968748Y-71991167D01*
X139086997Y-109486750D02*
G75*
G02*
X138760401Y-112162453I13170303J-2965350D01*
G01*
X203272040Y-210785155D02*
G75*
G02*
X205986378Y-209963959I-3257840J15664815D01*
G01*
X135170814Y-105359707D02*
G75*
G02*
X134254117Y-108193528I17086486J-7092393D01*
G01*
X193160079Y-76253567D02*
X193579688Y-76673174D01*
X265731697Y-108168948D02*
G75*
G02*
X264815003Y-105335125I-18003197J-4258552D01*
G01*
D15*
X217743881Y-48683539D02*
X204146915Y-40833327D01*
D10*
X134688469Y-171943635D02*
X135832052Y-172250057D01*
X195817013Y-68303898D02*
X196727960Y-69214845D01*
D11*
X178800000Y-128600000D02*
X182400000Y-130800000D01*
D17*
X192967735Y-116339109D02*
X193323411Y-115869764D01*
D18*
X194049246Y-70071665D02*
X194013622Y-70036041D01*
X263535091Y-169810664D02*
X263583754Y-169797624D01*
D10*
X198515387Y-63931204D02*
G75*
G02*
X195428724Y-64380075I1470413J-20948456D01*
G01*
X266619816Y-176748686D02*
G75*
G02*
X267774409Y-173851121I-18877116J9200786D01*
G01*
D14*
X157250032Y-107814569D02*
X156054209Y-109885796D01*
D10*
X136479100Y-169835243D02*
X137723477Y-170168672D01*
X206514973Y-62304899D02*
G75*
G02*
X196260934Y-61676748I-6529163J-22574761D01*
G01*
D15*
X140307148Y-142415361D02*
X140082438Y-142415361D01*
D10*
X261239603Y-167837547D02*
X260265955Y-168098435D01*
D15*
X133986949Y-71615690D02*
X133986949Y-56509634D01*
X207715833Y-61094565D02*
X208710450Y-62238374D01*
D10*
X134674278Y-108080944D02*
X135817861Y-107774522D01*
X130300537Y-104076503D02*
X132425227Y-103507194D01*
X202183690Y-216767873D02*
X201484613Y-216068796D01*
X206839921Y-203746433D02*
X206420312Y-203326826D01*
D19*
X199483730Y-112491323D02*
G75*
G02*
X201313053Y-55926418I0J28312033D01*
G01*
D15*
X204146915Y-40833327D02*
X160940018Y-52410580D01*
D10*
X156744359Y-105232973D02*
X157378804Y-107600754D01*
X203951457Y-215000106D02*
X203252381Y-214301030D01*
D15*
X156166464Y-68920224D02*
X159212240Y-57553234D01*
D10*
X202415220Y-213463869D02*
G75*
G02*
X205327731Y-212840846I-2401020J18343529D01*
G01*
X203739071Y-218323254D02*
X202183690Y-216767873D01*
X265325722Y-171919056D02*
X265745888Y-171806473D01*
D15*
X139941841Y-143837295D02*
X114546512Y-143837295D01*
D13*
X174000000Y-131600000D02*
X177400000Y-134000000D01*
D10*
X139748236Y-168123014D02*
X141314348Y-168542654D01*
X204031252Y-208008833D02*
G75*
G02*
X206511779Y-206953826I-4017062J12888493D01*
G01*
X258038605Y-113872161D02*
X256175773Y-113373018D01*
X141300157Y-111481925D02*
G75*
G02*
X141374015Y-114050328I10957143J-970175D01*
G01*
X136430437Y-169822203D02*
G75*
G02*
X137076421Y-172583490I15841063J2249703D01*
G01*
D11*
X200241811Y-116000000D02*
X200207887Y-120200215D01*
D10*
X256189964Y-166602397D02*
G75*
G02*
X243255636Y-174767035I-8447254J-945483D01*
G01*
D15*
X168044185Y-89493041D02*
X167851061Y-89158539D01*
X153867250Y-45977771D02*
X150215066Y-52303537D01*
D10*
X132439418Y-176517385D02*
X133394375Y-176773265D01*
X263535091Y-169810664D02*
X262290714Y-170144093D01*
D15*
X159226915Y-55212507D02*
X153707984Y-52026151D01*
D10*
X258625990Y-165949671D02*
X258052796Y-166103260D01*
D18*
X205950754Y-209928335D02*
X205986378Y-209963959D01*
D10*
X205039807Y-209017388D02*
X204031252Y-208008833D01*
X258611799Y-114025750D02*
X258038605Y-113872161D01*
X143810036Y-113397603D02*
G75*
G02*
X156744364Y-105232965I8447254J945483D01*
G01*
D20*
X127424439Y-185580484D02*
X127475207Y-189435990D01*
D10*
X206511779Y-206953826D02*
X205799019Y-206241066D01*
X197584780Y-66536131D02*
G75*
G02*
X194672269Y-67159154I2401020J-18343529D01*
G01*
X156758550Y-174791606D02*
X157392995Y-172423825D01*
X197816310Y-63232127D02*
X198515387Y-63931204D01*
X264829186Y-174640293D02*
G75*
G02*
X265745883Y-171806472I-17086486J7092393D01*
G01*
D15*
X169077774Y-88827967D02*
X157770870Y-69243835D01*
X223160089Y-47232270D02*
X217743881Y-48683539D01*
X264476195Y-186134825D02*
X262988319Y-186424284D01*
D10*
X243241450Y-105208394D02*
X242607005Y-107576175D01*
D15*
X140470450Y-71491660D02*
X140482882Y-61172510D01*
D10*
X206420312Y-203326826D02*
X205056626Y-201963138D01*
X134268303Y-171831052D02*
G75*
G02*
X135184997Y-174664875I18003197J4258552D01*
G01*
D15*
X140482882Y-61172510D02*
X143772959Y-57882433D01*
D14*
X206498416Y-86884726D02*
X204106770Y-86884726D01*
D10*
X265972770Y-174333871D02*
X264829186Y-174640293D01*
X194049246Y-70071665D02*
X194960193Y-70982612D01*
X205056631Y-201963135D02*
G75*
G02*
X191518662Y-194843997I-5042431J6842835D01*
G01*
D15*
X204412802Y-43104985D02*
X159226915Y-55212507D01*
D19*
X224081348Y-153307236D02*
G75*
G02*
X272153390Y-183173968I24518952J-14156064D01*
G01*
D10*
X137062238Y-107441092D02*
G75*
G02*
X136416250Y-110202377I15195062J-5011008D01*
G01*
D15*
X140340301Y-143837295D02*
X139941841Y-143837295D01*
D10*
X196727960Y-69214845D02*
G75*
G02*
X194013622Y-70036041I3257840J-15664815D01*
G01*
X264182139Y-172225478D02*
X262937762Y-172558908D01*
D18*
X263520900Y-110164757D02*
X263569563Y-110177797D01*
D10*
X133072275Y-105922009D02*
X132225586Y-106148878D01*
D15*
X167851061Y-89158539D02*
X156166464Y-68920224D01*
D21*
X283864338Y-100317845D02*
X264407737Y-95099548D01*
D14*
X242749968Y-172185431D02*
X243945791Y-170114204D01*
D18*
X197039577Y-166931971D02*
X194366904Y-163485284D01*
D10*
X265311531Y-108056365D02*
X265731697Y-108168948D01*
X191518692Y-194843998D02*
X193252028Y-193110662D01*
X193579688Y-76673174D02*
X194943374Y-78036862D01*
X195347456Y-74905407D02*
G75*
G02*
X193160076Y-76253563I4638344J-9974293D01*
G01*
D16*
X208389116Y-167310947D02*
X207756599Y-166447425D01*
D19*
X127765842Y-183033915D02*
X135565489Y-184647502D01*
D15*
X166591314Y-89765798D02*
X154887763Y-69494672D01*
D10*
X194200981Y-73758934D02*
X195347456Y-74905407D01*
X133086466Y-174102570D02*
X132239777Y-173875701D01*
D18*
X136464909Y-110189336D02*
X136416246Y-110202376D01*
D19*
X198686941Y-224073573D02*
X193389710Y-218125674D01*
D10*
X132425227Y-103507194D02*
X133380184Y-103251314D01*
D15*
X133986949Y-56509634D02*
X139576193Y-50920390D01*
D10*
X265325722Y-171919056D02*
X264182139Y-172225478D01*
X260251764Y-111876986D02*
X258685652Y-111457346D01*
X258052796Y-166103260D02*
X256189964Y-166602403D01*
D15*
X135523805Y-93865175D02*
X137011681Y-93575716D01*
D10*
X204652544Y-205094593D02*
G75*
G02*
X206839924Y-203746437I-4638344J9974293D01*
G01*
D14*
X157264223Y-172210010D02*
X156068400Y-170138783D01*
D10*
X138774588Y-167862126D02*
G75*
G02*
X139101180Y-170537831I13496912J289626D01*
G01*
X260913003Y-170513250D02*
G75*
G02*
X261239599Y-167837547I-13170303J2965350D01*
G01*
D15*
X104233847Y-131275838D02*
X104233847Y-104559595D01*
D17*
X294838621Y-159723587D02*
X295491876Y-159281536D01*
D10*
X134674278Y-108080944D02*
X134254112Y-108193527D01*
D15*
X168327585Y-89983906D02*
X168848650Y-89683069D01*
D19*
X175918652Y-126692764D02*
G75*
G02*
X127846668Y-96826071I-24518942J14156014D01*
G01*
D15*
X226537608Y-86390677D02*
X237127052Y-68016372D01*
X227936305Y-87827030D02*
X228721296Y-87616692D01*
D10*
X194979852Y-67466737D02*
X195817013Y-68303898D01*
X135832052Y-172250057D02*
X137076429Y-172583487D01*
D15*
X228721296Y-87616692D02*
X240093509Y-67919442D01*
D10*
X269685272Y-104051924D02*
X267560582Y-103482615D01*
D15*
X217831310Y-50852164D02*
X204412802Y-43104985D01*
X137008559Y-56511298D02*
X144931206Y-48588651D01*
X154887763Y-69494672D02*
X158764422Y-55026786D01*
X104233847Y-104559595D02*
X137008559Y-71784883D01*
D10*
X267574773Y-176492806D02*
X266619816Y-176748686D01*
D15*
X164162098Y-49296296D02*
X156972904Y-45145613D01*
X238610265Y-68303908D02*
X234758399Y-53928556D01*
D22*
X294606198Y-166758760D02*
G75*
G02*
X123050997Y-196632884I-92916515J26058880D01*
G01*
D10*
X260265955Y-168098435D02*
X258699843Y-168518075D01*
X136464909Y-110189336D02*
X137709286Y-109855907D01*
D20*
X127424439Y-185580484D02*
X132705491Y-184055827D01*
D10*
X196260929Y-61676746D02*
X197816310Y-63232127D01*
D15*
X106731222Y-130288676D02*
X106731222Y-105230888D01*
D14*
X242735777Y-107789990D02*
X243931600Y-109861217D01*
D17*
X175685125Y-135596791D02*
X175503620Y-134796520D01*
D10*
X193488221Y-73046174D02*
X194200981Y-73758934D01*
X138760397Y-112162453D02*
X139734045Y-111901565D01*
X135817861Y-107774522D02*
X137062238Y-107441092D01*
X193485027Y-217695101D02*
G75*
G02*
X203739066Y-218323252I6529163J22574761D01*
G01*
X194943369Y-78036865D02*
G75*
G02*
X208481338Y-85156003I5042431J-6842835D01*
G01*
D18*
X293082720Y-157442038D02*
X293392156Y-157850936D01*
D15*
X240093509Y-67919442D02*
X235862867Y-52130471D01*
X204083633Y-38599353D02*
X164162098Y-49296296D01*
D13*
X224400000Y-150500000D02*
X218000000Y-147200000D01*
D10*
X262937762Y-172558908D02*
G75*
G02*
X263583750Y-169797623I-15195062J5011008D01*
G01*
D15*
X227488635Y-87568567D02*
X227936305Y-87827030D01*
X235862867Y-52130471D02*
X223335426Y-44897750D01*
D10*
X205020148Y-212533263D02*
X204182987Y-211696102D01*
D18*
X294795671Y-157850936D02*
X295193517Y-157331525D01*
D10*
X137709286Y-109855907D02*
X139086997Y-109486750D01*
D13*
X206000000Y-166600000D02*
X206000000Y-161853887D01*
D15*
X217637291Y-46424561D02*
X204083633Y-38599353D01*
D20*
X286626904Y-164786200D02*
X290617805Y-154482150D01*
D15*
X117767102Y-141324556D02*
X106731222Y-130288676D01*
D10*
X134688469Y-171943635D02*
X134268303Y-171831052D01*
D18*
X223911175Y-148914412D02*
X226547116Y-148431774D01*
D10*
X137723477Y-170168672D02*
X139101188Y-170537829D01*
X133072275Y-105922009D02*
X134027230Y-105666129D01*
D23*
X298614539Y-139364067D02*
G75*
G02*
X296379189Y-160887402I-98614539J-635933D01*
G01*
D10*
X141388201Y-165974250D02*
X141961395Y-166127839D01*
D18*
X284143726Y-98847470D02*
X281100321Y-98456990D01*
D10*
X265958579Y-105641550D02*
X264814995Y-105335128D01*
X258611799Y-114025750D02*
G75*
G02*
X258685662Y-111457345I-10883299J1598250D01*
G01*
X138774588Y-167862126D02*
X139748236Y-168123014D01*
X267760223Y-106124299D02*
G75*
G02*
X266605620Y-103226737I-20031723J-6303301D01*
G01*
X208481308Y-85156002D02*
X206747972Y-86889338D01*
D15*
X137008559Y-71784883D02*
X137008559Y-56511298D01*
D13*
X195200000Y-113400000D02*
X195200000Y-116800000D01*
D15*
X168848650Y-89683069D02*
X169077774Y-88827967D01*
D10*
X263520900Y-110164757D02*
X262276523Y-109831328D01*
D15*
X115373370Y-142415361D02*
X104233847Y-131275838D01*
D13*
X302510530Y-138742432D02*
X298614540Y-138742432D01*
D19*
X272153321Y-183173929D02*
X264353674Y-184787516D01*
D10*
X133380184Y-103251314D02*
G75*
G02*
X132225591Y-106148879I18877116J-9200786D01*
G01*
D15*
X140082438Y-142415361D02*
X115373370Y-142415361D01*
X166842599Y-90201036D02*
X166591314Y-89765798D01*
D20*
X117630642Y-189727774D02*
X116286068Y-191893829D01*
D12*
X118868389Y-190578725D02*
X127705520Y-184054250D01*
D10*
X135971556Y-95510317D02*
G75*
G02*
X130300541Y-104076500I16285734J-16941803D01*
G01*
X134027230Y-105666129D02*
X135170814Y-105359707D01*
D15*
X140846410Y-142415361D02*
X140846410Y-141828823D01*
D10*
X266927725Y-174077991D02*
X265972770Y-174333871D01*
X141947204Y-113896740D02*
X143810036Y-113397597D01*
D15*
X106731222Y-105230888D02*
X140470450Y-71491660D01*
D10*
X264028444Y-184489683D02*
G75*
G02*
X269699449Y-175923497I-16285744J16941783D01*
G01*
D15*
X127807972Y-172770610D02*
X128301231Y-171337342D01*
D10*
X261225412Y-112137874D02*
X260251764Y-111876986D01*
D15*
X233825311Y-55694111D02*
X223027330Y-49459894D01*
D10*
X139734045Y-111901565D02*
X141300157Y-111481925D01*
D19*
X127846679Y-96826071D02*
X135646326Y-95212484D01*
D10*
X141388201Y-165974250D02*
G75*
G02*
X141314338Y-168542655I10883299J-1598250D01*
G01*
X133086466Y-174102570D02*
X134041421Y-174358450D01*
X243255641Y-174767027D02*
X242621196Y-172399246D01*
X195968748Y-71991167D02*
G75*
G02*
X193488221Y-73046174I4017062J-12888493D01*
G01*
X266927725Y-174077991D02*
X267774414Y-173851122D01*
D20*
X221932122Y-155960092D02*
X214734879Y-157945814D01*
D19*
X200516270Y-167508677D02*
G75*
G02*
X198686947Y-224073582I0J-28312033D01*
G01*
D15*
X140846410Y-141828823D02*
X140342143Y-141324556D01*
X223335426Y-44897750D02*
X217637291Y-46424561D01*
D10*
X266913534Y-105897430D02*
X265958579Y-105641550D01*
X263569563Y-110177797D02*
G75*
G02*
X262923579Y-107416510I-15841063J-2249703D01*
G01*
X194979852Y-67466737D02*
X194672269Y-67159154D01*
D18*
X136479100Y-169835243D02*
X136430437Y-169822203D01*
D10*
X196048543Y-64999894D02*
X195428724Y-64380075D01*
X265311531Y-108056365D02*
X264167948Y-107749943D01*
D15*
X160853406Y-52433788D02*
X156885997Y-50143202D01*
D10*
X156758550Y-174791606D02*
G75*
G02*
X143824305Y-166626985I-4487050J7219106D01*
G01*
D15*
X272192028Y-107229390D02*
X271698769Y-108662658D01*
D11*
X200400000Y-163954338D02*
X200400000Y-159800000D01*
D15*
X237127052Y-68016373D02*
X233825311Y-55694111D01*
X192284167Y-218905435D02*
X191289550Y-217761626D01*
D18*
X265259551Y-94158553D02*
X262700000Y-93500000D01*
D15*
X114546512Y-143837295D02*
X102031457Y-131322240D01*
D10*
X203252381Y-214301030D02*
X202415220Y-213463869D01*
X262276523Y-109831328D02*
X260898812Y-109462171D01*
D13*
X297361864Y-156667069D02*
X301259299Y-163889090D01*
D20*
X126056187Y-190666291D02*
X125960109Y-187409995D01*
D10*
X132239777Y-173875701D02*
G75*
G02*
X133394380Y-176773263I20031723J6303301D01*
G01*
X267560582Y-103482615D02*
X266605625Y-103226735D01*
D15*
X227784367Y-87054765D02*
X238595667Y-68329192D01*
X156972904Y-45145613D02*
X153867250Y-45977771D01*
D20*
X297478475Y-165110260D02*
X298207862Y-156667069D01*
D10*
X269685267Y-104051921D02*
G75*
G02*
X264014266Y-95485724I-21956767J-8375579D01*
G01*
X205799019Y-206241066D02*
X204652544Y-205094593D01*
X196048543Y-64999894D02*
X196747619Y-65698970D01*
D15*
X171846714Y-133420797D02*
X174061895Y-133185666D01*
D19*
X201313059Y-55926427D02*
X206610290Y-61874326D01*
D10*
X203951457Y-215000106D02*
X204571276Y-215619925D01*
X243241450Y-105208394D02*
G75*
G02*
X256175695Y-113373015I4487050J-7219106D01*
G01*
D15*
X234758399Y-53928556D02*
X223160089Y-47232270D01*
D10*
X262290714Y-170144093D02*
X260913003Y-170513250D01*
X264167948Y-107749943D02*
X262923571Y-107416513D01*
X134041421Y-174358450D02*
X135185005Y-174664872D01*
X141961395Y-166127839D02*
X143824227Y-166626982D01*
X196747619Y-65698970D02*
X197584780Y-66536131D01*
D15*
X102031457Y-103571182D02*
X133986949Y-71615690D01*
D24*
%TO.P,REF\u002A\u002A,1*%
%TO.N,N/C*%
X157034660Y-50343573D03*
D25*
%TO.P,REF\u002A\u002A,2*%
X153735103Y-52248573D03*
%TO.P,REF\u002A\u002A,3*%
X150435546Y-54153573D03*
%TO.P,REF\u002A\u002A,4*%
X147135990Y-56058573D03*
%TO.P,REF\u002A\u002A,5*%
X143836433Y-57963573D03*
%TD*%
D26*
%TO.P,REF\u002A\u002A2,1*%
%TO.N,N/C*%
X140350654Y-142417314D03*
%TO.P,REF\u002A\u002A2,2*%
X140850654Y-142417314D03*
%TO.P,REF\u002A\u002A2,3*%
X140350654Y-143817314D03*
%TO.P,REF\u002A\u002A2,4*%
X140850654Y-143817314D03*
D27*
%TO.P,REF\u002A\u002A2,5*%
X140600654Y-143117314D03*
%TD*%
D28*
%TO.P,REF\u002A\u002A,1*%
%TO.N,N/C*%
X227731218Y-87133494D03*
%TO.P,REF\u002A\u002A,2*%
X227481218Y-87566506D03*
%TO.P,REF\u002A\u002A,3*%
X226518782Y-86433494D03*
%TO.P,REF\u002A\u002A,4*%
X226268782Y-86866506D03*
D29*
%TO.P,REF\u002A\u002A,5*%
X227000000Y-87000000D03*
%TD*%
D30*
%TO.P,REF\u002A\u002A,1*%
%TO.N,N/C*%
X165962081Y-88749287D03*
%TO.P,REF\u002A\u002A,2*%
X167304421Y-87974287D03*
%TD*%
D31*
%TO.P,REF\u002A\u002A,1*%
%TO.N,N/C*%
X302400000Y-148960000D03*
D32*
%TO.P,REF\u002A\u002A,2*%
X302400000Y-143880000D03*
%TO.P,REF\u002A\u002A,3*%
X302400000Y-138800000D03*
%TO.P,REF\u002A\u002A,4*%
X302400000Y-133720000D03*
%TD*%
D33*
%TO.P,REF\u002A\u002A1,1*%
%TO.N,N/C*%
X168081872Y-89550808D03*
%TO.P,REF\u002A\u002A1,2*%
X168331872Y-89983820D03*
%TO.P,REF\u002A\u002A1,3*%
X166869436Y-90250808D03*
%TO.P,REF\u002A\u002A1,4*%
X167119436Y-90683820D03*
D34*
%TO.P,REF\u002A\u002A1,5*%
X167600654Y-90117314D03*
%TD*%
D35*
%TO.P,REF\u002A\u002A,1*%
%TO.N,N/C*%
X227360518Y-84878094D03*
%TO.P,REF\u002A\u002A,2*%
X228702858Y-85653094D03*
%TD*%
D36*
%TO.P,REF\u002A\u002A,1*%
%TO.N,N/C*%
X138779729Y-143850457D03*
%TO.P,REF\u002A\u002A,2*%
X138779729Y-142300457D03*
%TD*%
D37*
%TO.N,*%
X209600000Y-153200000D03*
X214600000Y-153000000D03*
X243480695Y-110303236D03*
X198800000Y-161800000D03*
X283483596Y-141401504D03*
X201571552Y-83455471D03*
X185400000Y-157600000D03*
X197721236Y-58286097D03*
X205800000Y-155000000D03*
X268094643Y-178593162D03*
X247054602Y-169024196D03*
X194772114Y-198739956D03*
X276513965Y-181666187D03*
X198428448Y-196544529D03*
X131995080Y-178571747D03*
X191600000Y-153800000D03*
X242848341Y-170801857D03*
X128111503Y-178913277D03*
X190000000Y-152600000D03*
X267406573Y-179608115D03*
X129739745Y-100066447D03*
X197600000Y-157600000D03*
X283500173Y-139930818D03*
X202827102Y-83423545D03*
X248408254Y-172681892D03*
X195534040Y-199691391D03*
X185600000Y-153200000D03*
X269132421Y-179285904D03*
X198989002Y-58046569D03*
X131728176Y-141320904D03*
X203800000Y-155600000D03*
X202846749Y-84651467D03*
X151830969Y-169657850D03*
X194817744Y-193741514D03*
X180901209Y-155198554D03*
X151816777Y-110366731D03*
X244576624Y-109740685D03*
X271479252Y-180101166D03*
X152431095Y-170761151D03*
X214800000Y-149400000D03*
X283400711Y-138517115D03*
X130879942Y-179130499D03*
X190800000Y-155600000D03*
X247917650Y-107285708D03*
X129298352Y-178741154D03*
X132530020Y-179675110D03*
X204200000Y-157000000D03*
X187800000Y-153400000D03*
X206600000Y-158400000D03*
X124277612Y-96462797D03*
X186800000Y-154800000D03*
X214200000Y-146600000D03*
X152416903Y-109263430D03*
X182600000Y-145600000D03*
X187400000Y-150200000D03*
X211800000Y-153000000D03*
X206200000Y-156600000D03*
X197153251Y-195348533D03*
X246495669Y-109835795D03*
X208800000Y-157600000D03*
X186200000Y-156200000D03*
X198391610Y-195262578D03*
X128537949Y-180130958D03*
X210200000Y-155000000D03*
X152039919Y-173931661D03*
X198290745Y-163313663D03*
X184000000Y-147600000D03*
X249606605Y-172482147D03*
X199456380Y-60486615D03*
X202278764Y-221713903D03*
X156063803Y-171383302D03*
X197000000Y-159400000D03*
X188000000Y-157000000D03*
X196400000Y-161200000D03*
X205251020Y-87491319D03*
X247040410Y-110951223D03*
X204400000Y-159000000D03*
X201386490Y-163350961D03*
X214200000Y-158400000D03*
X188400000Y-160400000D03*
X270690745Y-101266894D03*
X130867579Y-100714096D03*
X282041402Y-141418081D03*
X216292665Y-150756815D03*
X153504331Y-170164205D03*
X131411199Y-180227481D03*
X199327977Y-219424975D03*
X275469617Y-183473074D03*
X157786279Y-69270523D03*
X205227886Y-81260044D03*
X247960081Y-106068339D03*
X155423376Y-170259315D03*
X150538719Y-106286670D03*
X212600000Y-154800000D03*
X156505114Y-110327815D03*
X199400000Y-160000000D03*
X213800000Y-151200000D03*
X196050577Y-192503769D03*
X196111359Y-193734147D03*
X150393395Y-107517853D03*
X205182256Y-86258486D03*
X221200000Y-148000000D03*
X159201736Y-57592434D03*
X268448035Y-180294476D03*
X155409185Y-109765264D03*
X200000000Y-156400000D03*
X276630004Y-182942612D03*
X215400000Y-154800000D03*
X156519305Y-169696764D03*
X202200000Y-156400000D03*
X233529965Y-74178351D03*
X128094302Y-101116516D03*
X151591746Y-107318108D03*
X268004920Y-101428253D03*
X249461281Y-173713330D03*
X132466228Y-142423221D03*
X152023929Y-172712062D03*
X200598347Y-61820138D03*
X179800000Y-148800000D03*
X211000000Y-151400000D03*
X270686622Y-178681581D03*
X193000000Y-162200000D03*
X271905698Y-178883484D03*
X163625494Y-81873469D03*
X131551965Y-99705524D03*
X201600000Y-162000000D03*
X248183223Y-169633269D03*
X271462051Y-99869042D03*
X181200000Y-146000000D03*
X249249769Y-106301278D03*
X207600000Y-162000000D03*
X216400000Y-145600000D03*
X217400000Y-148200000D03*
X178000000Y-147600000D03*
X215800000Y-147400000D03*
X203949423Y-87496231D03*
X178588725Y-151468741D03*
X204600000Y-161200000D03*
X243494886Y-169672185D03*
X182800000Y-148600000D03*
X189200000Y-154000000D03*
X268588801Y-99772519D03*
X218600000Y-149200000D03*
X201844079Y-220557201D03*
X189000000Y-158800000D03*
X275370156Y-182180072D03*
X200672023Y-60575025D03*
X203327062Y-80798346D03*
X202200000Y-158000000D03*
X185200000Y-147000000D03*
X151743649Y-106102540D03*
X190800000Y-161400000D03*
X193200000Y-154600000D03*
X187000000Y-158800000D03*
X235393009Y-73788985D03*
X270260255Y-179933553D03*
X219933632Y-150239348D03*
X183000000Y-146800000D03*
X195900778Y-198263724D03*
X192000000Y-158000000D03*
X193800000Y-160600000D03*
X177800000Y-149600000D03*
X181400000Y-149400000D03*
X156049612Y-108641277D03*
X150844619Y-172494946D03*
X269120058Y-100869501D03*
X185000000Y-149600000D03*
X211400000Y-158600000D03*
X152959590Y-169048777D03*
X243936197Y-108616698D03*
X195000000Y-157000000D03*
X157151659Y-109198143D03*
X200624663Y-218268272D03*
X183800000Y-145000000D03*
X281975094Y-139930818D03*
X207800000Y-154200000D03*
X181600000Y-147600000D03*
X183000000Y-152600000D03*
X237058090Y-73143875D03*
X161737381Y-81385776D03*
X123172482Y-98109440D03*
X247583097Y-170736570D03*
X165320131Y-82345568D03*
X184000000Y-156200000D03*
X188600000Y-151600000D03*
X198000000Y-156000000D03*
X212400000Y-149800000D03*
X196672938Y-199201654D03*
X211800000Y-160200000D03*
X153490139Y-109860376D03*
X144931206Y-48588651D03*
X216200000Y-156400000D03*
X197172898Y-196576455D03*
X190000000Y-157400000D03*
X199800000Y-158000000D03*
X271888497Y-101086723D03*
X128520748Y-99898834D03*
X219600000Y-147200000D03*
X194748980Y-192508681D03*
X129313378Y-101318419D03*
X157165850Y-170826436D03*
X204600000Y-162800000D03*
X132796408Y-143852530D03*
X199453344Y-59186058D03*
X195600000Y-155400000D03*
X201010998Y-221953431D03*
X181000000Y-152200000D03*
X179800000Y-146800000D03*
X199375337Y-61731728D03*
X248256351Y-173897460D03*
X210800000Y-156800000D03*
X209400000Y-159200000D03*
X270243054Y-100036654D03*
X209800000Y-161200000D03*
X123006713Y-96794336D03*
X247568905Y-109238849D03*
X152945398Y-110975804D03*
X180200000Y-150600000D03*
X199401653Y-218179862D03*
X191400000Y-159600000D03*
X242834150Y-109173564D03*
X132593427Y-100391885D03*
X249155381Y-107505054D03*
X207200000Y-160400000D03*
X129756946Y-179963346D03*
X195600000Y-162800000D03*
X246509861Y-170139624D03*
X243950388Y-171358723D03*
X213400000Y-156800000D03*
X150709548Y-173703840D03*
X184800000Y-154600000D03*
X218404409Y-153521584D03*
X192600000Y-156400000D03*
X213600000Y-148200000D03*
X182000000Y-154000000D03*
X218200000Y-146400000D03*
X203888641Y-86265853D03*
X131905357Y-101406838D03*
X281958517Y-138467384D03*
X204465960Y-80308609D03*
X188600000Y-155400000D03*
X182600000Y-150400000D03*
X204099222Y-81736276D03*
X184000000Y-151000000D03*
X244590815Y-170234736D03*
X200543620Y-219513385D03*
X198155921Y-59442799D03*
X186400000Y-151600000D03*
X201608390Y-84737422D03*
X124354971Y-97744747D03*
X208200000Y-156000000D03*
X202000000Y-160000000D03*
X186200000Y-148600000D03*
X200546656Y-220813942D03*
X139576193Y-50920390D03*
X194400000Y-158800000D03*
X217400000Y-152400000D03*
X267469980Y-100324890D03*
X248169031Y-110342150D03*
%TD*%
M02*
