%TF.GenerationSoftware,KiCad,Pcbnew,10.0.4*%
%TF.CreationDate,2026-07-07T13:00:24+03:00*%
%TF.ProjectId,PcbMot,5063624d-6f74-42e6-9b69-6361645f7063,rev?*%
%TF.SameCoordinates,Original*%
%TF.FileFunction,Copper,L2,Inr*%
%TF.FilePolarity,Positive*%
%FSLAX46Y46*%
G04 Gerber Fmt 4.6, Leading zero omitted, Abs format (unit mm)*
G04 Created by KiCad (PCBNEW 10.0.4) date 2026-07-07 13:00:24*
%MOMM*%
%LPD*%
G01*
G04 APERTURE LIST*
G04 Aperture macros list*
%AMRoundRect*
0 Rectangle with rounded corners*
0 $1 Rounding radius*
0 $2 $3 $4 $5 $6 $7 $8 $9 X,Y pos of 4 corners*
0 Add a 4 corners polygon primitive as box body*
4,1,4,$2,$3,$4,$5,$6,$7,$8,$9,$2,$3,0*
0 Add four circle primitives for the rounded corners*
1,1,$1+$1,$2,$3*
1,1,$1+$1,$4,$5*
1,1,$1+$1,$6,$7*
1,1,$1+$1,$8,$9*
0 Add four rect primitives between the rounded corners*
20,1,$1+$1,$2,$3,$4,$5,0*
20,1,$1+$1,$4,$5,$6,$7,0*
20,1,$1+$1,$6,$7,$8,$9,0*
20,1,$1+$1,$8,$9,$2,$3,0*%
G04 Aperture macros list end*
%TA.AperFunction,NonConductor*%
%ADD10C,2.200000*%
%TD*%
%TA.AperFunction,NonConductor*%
%ADD11C,2.500000*%
%TD*%
%TA.AperFunction,NonConductor*%
%ADD12C,0.200000*%
%TD*%
%TA.AperFunction,NonConductor*%
%ADD13C,1.000000*%
%TD*%
%TA.AperFunction,ComponentPad*%
%ADD14RoundRect,0.250000X0.274519X1.024519X-1.024519X0.274519X-0.274519X-1.024519X1.024519X-0.274519X0*%
%TD*%
%TA.AperFunction,ComponentPad*%
%ADD15C,2.000000*%
%TD*%
%TA.AperFunction,ComponentPad*%
%ADD16RoundRect,0.250000X1.050000X-1.050000X1.050000X1.050000X-1.050000X1.050000X-1.050000X-1.050000X0*%
%TD*%
%TA.AperFunction,ComponentPad*%
%ADD17C,2.600000*%
%TD*%
%TA.AperFunction,ViaPad*%
%ADD18C,0.600000*%
%TD*%
G04 APERTURE END LIST*
D10*
X130314736Y-175948089D02*
G75*
G02*
X132694964Y-180572855I21956764J8375589D01*
G01*
X138760397Y-112162453D02*
X139734045Y-111901565D01*
X195968748Y-71991167D02*
G75*
G02*
X193488221Y-73046174I4017062J-12888493D01*
G01*
X262937762Y-172558908D02*
G75*
G02*
X263583750Y-169797623I-15195062J5011008D01*
G01*
X201456203Y-61425709D02*
X200709687Y-61348367D01*
X263569556Y-110177782D02*
G75*
G02*
X262923569Y-107416496I-15841056J-2249718D01*
G01*
X206511779Y-206953826D02*
X205799019Y-206241066D01*
X260913003Y-170513250D02*
G75*
G02*
X261239599Y-167837547I-13170303J2965350D01*
G01*
D11*
X201006837Y-61226507D02*
X199542335Y-61121157D01*
D10*
X194049246Y-70071665D02*
X194960193Y-70982612D01*
X194979852Y-67466737D02*
X194672269Y-67159154D01*
X201484613Y-216068796D02*
G75*
G02*
X204571276Y-215619925I-1470413J20948456D01*
G01*
X264829186Y-174640292D02*
G75*
G02*
X265745883Y-171806471I-17086486J7092392D01*
G01*
X141961403Y-166127854D02*
X143824235Y-166626996D01*
X193018524Y-80010676D02*
X194786291Y-81990050D01*
X269685264Y-104051910D02*
X267560574Y-103482601D01*
D12*
X131829781Y-181525718D02*
X132637583Y-182124871D01*
D10*
X206981476Y-199989324D02*
X205213709Y-198009950D01*
X267319231Y-180548255D02*
X267759469Y-179940424D01*
X134027230Y-105666130D02*
X135170814Y-105359708D01*
X264182139Y-172225478D02*
X262937762Y-172558908D01*
X267760215Y-106124285D02*
G75*
G02*
X266605622Y-103226718I-20031715J-6303215D01*
G01*
X256189965Y-166602401D02*
G75*
G02*
X255443012Y-163948531I-8447265J-945499D01*
G01*
X261225404Y-112137859D02*
G75*
G02*
X260898809Y-109462155I-13496904J-289641D01*
G01*
X132239785Y-173875715D02*
G75*
G02*
X133394378Y-176773282I20031715J6303215D01*
G01*
X194979852Y-67466737D02*
X195817013Y-68303898D01*
X133086474Y-174102585D02*
X132239785Y-173875715D01*
D11*
X132654934Y-180729213D02*
X131359463Y-178936813D01*
D10*
X266619816Y-176748685D02*
G75*
G02*
X267774409Y-173851120I-18877116J9200785D01*
G01*
D11*
X267716428Y-180258693D02*
X268539915Y-179043072D01*
D10*
X265325722Y-171919056D02*
X264182139Y-172225478D01*
X137723485Y-170168687D02*
X139101196Y-170537844D01*
X135817861Y-107774522D02*
X137062238Y-107441092D01*
D12*
X131542111Y-98859502D02*
X132494477Y-98005648D01*
D10*
X135832060Y-172250072D02*
X137076437Y-172583502D01*
X198543794Y-218574291D02*
G75*
G02*
X203739072Y-218323254I1470406J23453951D01*
G01*
X136430444Y-169822218D02*
G75*
G02*
X137076431Y-172583504I15841056J2249718D01*
G01*
D12*
X268457889Y-181140498D02*
X267505523Y-181994352D01*
D10*
X196260929Y-61676746D02*
X197816310Y-63232127D01*
X258052796Y-166103260D02*
X256189964Y-166602402D01*
X134674278Y-108080944D02*
X135817861Y-107774522D01*
X141388208Y-165974265D02*
X141961403Y-166127854D01*
X203951457Y-215000106D02*
X204571276Y-215619925D01*
X205056628Y-201963138D02*
G75*
G02*
X206981483Y-199989332I-5042428J6842838D01*
G01*
D11*
X147250794Y-115329669D02*
G75*
G02*
X151539820Y-106711037I5117806J2829669D01*
G01*
D12*
X198600228Y-219856520D02*
X197384586Y-219458674D01*
D10*
X137062238Y-107441092D02*
G75*
G02*
X136416250Y-110202377I15195062J-5011008D01*
G01*
X203252381Y-214301030D02*
X202415220Y-213463869D01*
X132439426Y-176517399D02*
X133394383Y-176773279D01*
X141300157Y-111481925D02*
G75*
G02*
X141374015Y-114050328I10957143J-970175D01*
G01*
X264167940Y-107749928D02*
X262923563Y-107416498D01*
X206839921Y-203746433D02*
X206420312Y-203326826D01*
X198515387Y-63931204D02*
G75*
G02*
X195428724Y-64380075I1470413J-20948456D01*
G01*
X134268311Y-171831066D02*
G75*
G02*
X135185007Y-174664888I18003189J4258566D01*
G01*
X134688477Y-171943650D02*
X135832060Y-172250072D01*
X258038597Y-113872146D02*
X256175765Y-113373004D01*
X197584780Y-66536131D02*
G75*
G02*
X194672269Y-67159154I2401020J-18343529D01*
G01*
X196048543Y-64999894D02*
X196747619Y-65698970D01*
X134688477Y-171943650D02*
X134268311Y-171831066D01*
X258625991Y-165949671D02*
X258052796Y-166103260D01*
X136479108Y-169835257D02*
X137723485Y-170168687D01*
X265311523Y-108056350D02*
X265731689Y-108168934D01*
X203272040Y-210785155D02*
G75*
G02*
X205986378Y-209963959I-3257840J15664815D01*
G01*
D11*
X267345066Y-99270787D02*
X268640537Y-101063187D01*
D10*
X261225404Y-112137859D02*
X260251756Y-111876971D01*
X205020148Y-212533263D02*
X205327731Y-212840846D01*
D11*
X248184017Y-106678178D02*
G75*
G02*
X253059182Y-114676736I-552617J-5821822D01*
G01*
D10*
X255443017Y-163948526D02*
X252844945Y-164489770D01*
X134674278Y-108080944D02*
X134254112Y-108193528D01*
X204652544Y-205094593D02*
G75*
G02*
X206839924Y-203746437I-4638344J9974293D01*
G01*
X255398147Y-116013303D02*
X253028507Y-114663159D01*
X266913526Y-105897415D02*
X265958571Y-105641536D01*
X205020148Y-212533263D02*
X204182987Y-211696102D01*
X205039807Y-209017388D02*
X204031252Y-208008833D01*
X130314736Y-175948090D02*
X132439426Y-176517399D01*
D13*
X194049246Y-70071665D02*
X194013622Y-70036041D01*
D10*
X265731689Y-108168934D02*
G75*
G02*
X264814993Y-105335112I-18003189J-4258566D01*
G01*
X263535091Y-169810663D02*
X262290714Y-170144093D01*
X197816310Y-63232127D02*
X198515387Y-63931204D01*
X194960193Y-70982612D02*
X195968748Y-71991167D01*
X195347456Y-74905407D02*
G75*
G02*
X193160076Y-76253563I4638344J-9974293D01*
G01*
X255428820Y-116026878D02*
G75*
G02*
X256175776Y-113373006I-7700320J3599378D01*
G01*
X266927725Y-174077991D02*
X267774414Y-173851121D01*
X136464909Y-110189337D02*
X137709286Y-109855907D01*
X203739071Y-218323254D02*
X202183690Y-216767873D01*
X262290714Y-170144093D02*
X260913003Y-170513250D01*
X261239603Y-167837547D02*
X260265955Y-168098435D01*
X267319229Y-180548257D02*
G75*
G02*
X269699458Y-175923493I-19576529J13000357D01*
G01*
X260251756Y-111876971D02*
X258685644Y-111457331D01*
X269685264Y-104051911D02*
G75*
G02*
X267305036Y-99427145I-21956764J-8375589D01*
G01*
X266927725Y-174077991D02*
X265972770Y-174333870D01*
X137709286Y-109855907D02*
X139086997Y-109486750D01*
D11*
X151815983Y-173321822D02*
G75*
G02*
X146940818Y-165323264I552617J5821822D01*
G01*
D10*
X202183690Y-216767873D02*
X201484613Y-216068796D01*
X144571180Y-163973122D02*
G75*
G02*
X143824224Y-166626994I7700320J-3599378D01*
G01*
X193579688Y-76673174D02*
X194943374Y-78036862D01*
X267560574Y-103482601D02*
X266605617Y-103226721D01*
X195817013Y-68303898D02*
X196727960Y-69214845D01*
X141374009Y-114050329D02*
X141947204Y-113896740D01*
X205799019Y-206241066D02*
X204652544Y-205094593D01*
D13*
X263520892Y-110164743D02*
X263569556Y-110177782D01*
D10*
X201456206Y-61425709D02*
G75*
G02*
X196260928Y-61676746I-1470406J-23453951D01*
G01*
D12*
X268170219Y-98474282D02*
X267362417Y-97875129D01*
D10*
X193160079Y-76253567D02*
X193579688Y-76673174D01*
X260265955Y-168098435D02*
X258699843Y-168518075D01*
X135170814Y-105359708D02*
G75*
G02*
X134254117Y-108193529I17086486J-7092392D01*
G01*
X134041429Y-174358464D02*
X135185013Y-174664886D01*
X205950754Y-209928335D02*
X205039807Y-209017388D01*
X198543797Y-218574291D02*
X199290313Y-218651633D01*
X265972770Y-174333870D02*
X264829186Y-174640292D01*
X144601853Y-163986697D02*
X146971493Y-165336841D01*
X194943372Y-78036862D02*
G75*
G02*
X193018517Y-80010668I5042428J-6842838D01*
G01*
D13*
X136464909Y-110189337D02*
X136416245Y-110202376D01*
D10*
X132680771Y-99451743D02*
G75*
G02*
X130300542Y-104076507I19576529J-13000357D01*
G01*
X265311523Y-108056350D02*
X264167940Y-107749928D01*
X132425227Y-103507195D02*
X133380184Y-103251315D01*
X196048543Y-64999894D02*
X195428724Y-64380075D01*
X267574773Y-176492805D02*
X266619816Y-176748685D01*
D13*
X263535091Y-169810663D02*
X263583755Y-169797624D01*
D10*
X130300537Y-104076504D02*
X132425227Y-103507195D01*
X196727960Y-69214845D02*
G75*
G02*
X194013622Y-70036041I3257840J-15664815D01*
G01*
X269699463Y-175923496D02*
X267574773Y-176492805D01*
X139734045Y-111901565D02*
X141300157Y-111481925D01*
D11*
X205009470Y-198017318D02*
G75*
G02*
X195401001Y-198612230I-5009470J3017318D01*
G01*
D10*
X196747619Y-65698970D02*
X197584780Y-66536131D01*
X204031252Y-208008833D02*
G75*
G02*
X206511779Y-206953826I-4017062J12888493D01*
G01*
X133086474Y-174102585D02*
X134041429Y-174358464D01*
X139748244Y-168123029D02*
X141314356Y-168542669D01*
X141388208Y-165974265D02*
G75*
G02*
X141314348Y-168542670I10883292J-1598235D01*
G01*
X138774596Y-167862141D02*
G75*
G02*
X139101191Y-170537845I13496904J289641D01*
G01*
D11*
X198993163Y-218773493D02*
X200457665Y-218878843D01*
D10*
X265325722Y-171919056D02*
X265745888Y-171806472D01*
X132680769Y-99451745D02*
X132240531Y-100059576D01*
X265958571Y-105641536D02*
X264814987Y-105335114D01*
X133072275Y-105922009D02*
X132225586Y-106148879D01*
X144556983Y-116051474D02*
X147155055Y-115510230D01*
X258611792Y-114025735D02*
G75*
G02*
X258685652Y-111457330I-10883292J1598235D01*
G01*
X263520892Y-110164743D02*
X262276515Y-109831313D01*
D11*
X132283572Y-99741307D02*
X131460085Y-100956928D01*
D10*
X194200981Y-73758934D02*
X195347456Y-74905407D01*
D11*
X194990530Y-81982682D02*
G75*
G02*
X204598999Y-81387770I5009470J-3017318D01*
G01*
D10*
X139086997Y-109486750D02*
G75*
G02*
X138760401Y-112162453I13170303J-2965350D01*
G01*
X133072275Y-105922009D02*
X134027230Y-105666130D01*
X138774596Y-167862141D02*
X139748244Y-168123029D01*
X202415220Y-213463869D02*
G75*
G02*
X205327731Y-212840846I-2401020J18343529D01*
G01*
D13*
X136479108Y-169835257D02*
X136430444Y-169822218D01*
X205950754Y-209928335D02*
X205986378Y-209963959D01*
D10*
X193488221Y-73046174D02*
X194200981Y-73758934D01*
X141947204Y-113896740D02*
X143810036Y-113397598D01*
D11*
X252749206Y-164670331D02*
G75*
G02*
X248460180Y-173288963I-5117806J-2829669D01*
G01*
D10*
X266913526Y-105897415D02*
X267760215Y-106124285D01*
X133380184Y-103251315D02*
G75*
G02*
X132225591Y-106148880I18877116J-9200785D01*
G01*
X258611792Y-114025735D02*
X258038597Y-113872146D01*
X262276515Y-109831313D02*
X260898804Y-109462156D01*
X143810035Y-113397599D02*
G75*
G02*
X144556988Y-116051469I8447265J945499D01*
G01*
X258699843Y-168518075D02*
G75*
G02*
X258625985Y-165949672I-10957143J970175D01*
G01*
X206420312Y-203326826D02*
X205056626Y-201963138D01*
X203951457Y-215000106D02*
X203252381Y-214301030D01*
X204182987Y-211696102D02*
X203272040Y-210785155D01*
D12*
X201399772Y-60143480D02*
X202615414Y-60541326D01*
D14*
%TO.N,N/C*%
%TO.C,REF\u002A\u002A*%
X157034660Y-50343573D03*
D15*
X153735103Y-52248573D03*
X150435546Y-54153573D03*
X147135990Y-56058573D03*
X143836433Y-57963573D03*
%TD*%
D16*
%TO.N,N/C*%
%TO.C,REF\u002A\u002A*%
X302400000Y-148960000D03*
D17*
X302400000Y-143880000D03*
X302400000Y-138800000D03*
X302400000Y-133720000D03*
%TD*%
D18*
%TO.N,*%
X209600000Y-153200000D03*
X214600000Y-153000000D03*
X243480695Y-110303236D03*
X198800000Y-161800000D03*
X283483596Y-141401504D03*
X201571552Y-83455471D03*
X185400000Y-157600000D03*
X197721236Y-58286097D03*
X205800000Y-155000000D03*
X268094643Y-178593162D03*
X247054602Y-169024196D03*
X194772114Y-198739956D03*
X276513965Y-181666187D03*
X198428448Y-196544529D03*
X131995080Y-178571747D03*
X191600000Y-153800000D03*
X242848341Y-170801857D03*
X128111503Y-178913277D03*
X190000000Y-152600000D03*
X267406573Y-179608115D03*
X129739745Y-100066447D03*
X197600000Y-157600000D03*
X283500173Y-139930818D03*
X202827102Y-83423545D03*
X248408254Y-172681892D03*
X195534040Y-199691391D03*
X185600000Y-153200000D03*
X269132421Y-179285904D03*
X198989002Y-58046569D03*
X131728176Y-141320904D03*
X203800000Y-155600000D03*
X202846749Y-84651467D03*
X151830969Y-169657850D03*
X194817744Y-193741514D03*
X180901209Y-155198554D03*
X151816777Y-110366731D03*
X244576624Y-109740685D03*
X271479252Y-180101166D03*
X152431095Y-170761151D03*
X214800000Y-149400000D03*
X283400711Y-138517115D03*
X130879942Y-179130499D03*
X190800000Y-155600000D03*
X247917650Y-107285708D03*
X129298352Y-178741154D03*
X132530020Y-179675110D03*
X204200000Y-157000000D03*
X187800000Y-153400000D03*
X206600000Y-158400000D03*
X124277612Y-96462797D03*
X186800000Y-154800000D03*
X214200000Y-146600000D03*
X152416903Y-109263430D03*
X182600000Y-145600000D03*
X187400000Y-150200000D03*
X211800000Y-153000000D03*
X206200000Y-156600000D03*
X197153251Y-195348533D03*
X246495669Y-109835795D03*
X208800000Y-157600000D03*
X186200000Y-156200000D03*
X198391610Y-195262578D03*
X128537949Y-180130958D03*
X210200000Y-155000000D03*
X152039919Y-173931661D03*
X198290745Y-163313663D03*
X184000000Y-147600000D03*
X249606605Y-172482147D03*
X199456380Y-60486615D03*
X202278764Y-221713903D03*
X156063803Y-171383302D03*
X197000000Y-159400000D03*
X188000000Y-157000000D03*
X196400000Y-161200000D03*
X205251020Y-87491319D03*
X247040410Y-110951223D03*
X204400000Y-159000000D03*
X201386490Y-163350961D03*
X214200000Y-158400000D03*
X188400000Y-160400000D03*
X270690745Y-101266894D03*
X130867579Y-100714096D03*
X282041402Y-141418081D03*
X216292665Y-150756815D03*
X153504331Y-170164205D03*
X131411199Y-180227481D03*
X199327977Y-219424975D03*
X275469617Y-183473074D03*
X157786279Y-69270523D03*
X205227886Y-81260044D03*
X247960081Y-106068339D03*
X155423376Y-170259315D03*
X150538719Y-106286670D03*
X212600000Y-154800000D03*
X156505114Y-110327815D03*
X199400000Y-160000000D03*
X213800000Y-151200000D03*
X196050577Y-192503769D03*
X196111359Y-193734147D03*
X150393395Y-107517853D03*
X205182256Y-86258486D03*
X221200000Y-148000000D03*
X159201736Y-57592434D03*
X268448035Y-180294476D03*
X155409185Y-109765264D03*
X200000000Y-156400000D03*
X276630004Y-182942612D03*
X215400000Y-154800000D03*
X156519305Y-169696764D03*
X202200000Y-156400000D03*
X233529965Y-74178351D03*
X128094302Y-101116516D03*
X151591746Y-107318108D03*
X268004920Y-101428253D03*
X249461281Y-173713330D03*
X132466228Y-142423221D03*
X152023929Y-172712062D03*
X200598347Y-61820138D03*
X179800000Y-148800000D03*
X211000000Y-151400000D03*
X270686622Y-178681581D03*
X193000000Y-162200000D03*
X271905698Y-178883484D03*
X163625494Y-81873469D03*
X131551965Y-99705524D03*
X201600000Y-162000000D03*
X248183223Y-169633269D03*
X271462051Y-99869042D03*
X181200000Y-146000000D03*
X249249769Y-106301278D03*
X207600000Y-162000000D03*
X216400000Y-145600000D03*
X217400000Y-148200000D03*
X178000000Y-147600000D03*
X215800000Y-147400000D03*
X203949423Y-87496231D03*
X178588725Y-151468741D03*
X204600000Y-161200000D03*
X243494886Y-169672185D03*
X182800000Y-148600000D03*
X189200000Y-154000000D03*
X268588801Y-99772519D03*
X218600000Y-149200000D03*
X201844079Y-220557201D03*
X189000000Y-158800000D03*
X275370156Y-182180072D03*
X200672023Y-60575025D03*
X203327062Y-80798346D03*
X202200000Y-158000000D03*
X185200000Y-147000000D03*
X151743649Y-106102540D03*
X190800000Y-161400000D03*
X193200000Y-154600000D03*
X187000000Y-158800000D03*
X235393009Y-73788985D03*
X270260255Y-179933553D03*
X219933632Y-150239348D03*
X183000000Y-146800000D03*
X195900778Y-198263724D03*
X192000000Y-158000000D03*
X193800000Y-160600000D03*
X177800000Y-149600000D03*
X181400000Y-149400000D03*
X156049612Y-108641277D03*
X150844619Y-172494946D03*
X269120058Y-100869501D03*
X185000000Y-149600000D03*
X211400000Y-158600000D03*
X152959590Y-169048777D03*
X243936197Y-108616698D03*
X195000000Y-157000000D03*
X157151659Y-109198143D03*
X200624663Y-218268272D03*
X183800000Y-145000000D03*
X281975094Y-139930818D03*
X207800000Y-154200000D03*
X181600000Y-147600000D03*
X183000000Y-152600000D03*
X237058090Y-73143875D03*
X161737381Y-81385776D03*
X123172482Y-98109440D03*
X247583097Y-170736570D03*
X165320131Y-82345568D03*
X184000000Y-156200000D03*
X188600000Y-151600000D03*
X198000000Y-156000000D03*
X212400000Y-149800000D03*
X196672938Y-199201654D03*
X211800000Y-160200000D03*
X153490139Y-109860376D03*
X144931206Y-48588651D03*
X216200000Y-156400000D03*
X197172898Y-196576455D03*
X190000000Y-157400000D03*
X199800000Y-158000000D03*
X271888497Y-101086723D03*
X128520748Y-99898834D03*
X219600000Y-147200000D03*
X194748980Y-192508681D03*
X129313378Y-101318419D03*
X157165850Y-170826436D03*
X204600000Y-162800000D03*
X132796408Y-143852530D03*
X199453344Y-59186058D03*
X195600000Y-155400000D03*
X201010998Y-221953431D03*
X181000000Y-152200000D03*
X179800000Y-146800000D03*
X199375337Y-61731728D03*
X248256351Y-173897460D03*
X210800000Y-156800000D03*
X209400000Y-159200000D03*
X270243054Y-100036654D03*
X209800000Y-161200000D03*
X123006713Y-96794336D03*
X247568905Y-109238849D03*
X152945398Y-110975804D03*
X180200000Y-150600000D03*
X199401653Y-218179862D03*
X191400000Y-159600000D03*
X242834150Y-109173564D03*
X132593427Y-100391885D03*
X249155381Y-107505054D03*
X207200000Y-160400000D03*
X129756946Y-179963346D03*
X195600000Y-162800000D03*
X246509861Y-170139624D03*
X243950388Y-171358723D03*
X213400000Y-156800000D03*
X150709548Y-173703840D03*
X184800000Y-154600000D03*
X218404409Y-153521584D03*
X192600000Y-156400000D03*
X213600000Y-148200000D03*
X182000000Y-154000000D03*
X218200000Y-146400000D03*
X203888641Y-86265853D03*
X131905357Y-101406838D03*
X281958517Y-138467384D03*
X204465960Y-80308609D03*
X188600000Y-155400000D03*
X182600000Y-150400000D03*
X204099222Y-81736276D03*
X184000000Y-151000000D03*
X244590815Y-170234736D03*
X200543620Y-219513385D03*
X198155921Y-59442799D03*
X186400000Y-151600000D03*
X201608390Y-84737422D03*
X124354971Y-97744747D03*
X208200000Y-156000000D03*
X202000000Y-160000000D03*
X186200000Y-148600000D03*
X200546656Y-220813942D03*
X139576193Y-50920390D03*
X194400000Y-158800000D03*
X217400000Y-152400000D03*
X267469980Y-100324890D03*
X248169031Y-110342150D03*
%TD*%
M02*
