%TF.GenerationSoftware,KiCad,Pcbnew,10.0.4*%
%TF.CreationDate,2026-07-07T13:00:24+03:00*%
%TF.ProjectId,PcbMot,5063624d-6f74-42e6-9b69-6361645f7063,rev?*%
%TF.SameCoordinates,Original*%
%TF.FileFunction,Copper,L1,Top*%
%TF.FilePolarity,Positive*%
%FSLAX46Y46*%
G04 Gerber Fmt 4.6, Leading zero omitted, Abs format (unit mm)*
G04 Created by KiCad (PCBNEW 10.0.4) date 2026-07-07 13:00:24*
%MOMM*%
%LPD*%
G01*
G04 APERTURE LIST*
G04 Aperture macros list*
%AMRoundRect*
0 Rectangle with rounded corners*
0 $1 Rounding radius*
0 $2 $3 $4 $5 $6 $7 $8 $9 X,Y pos of 4 corners*
0 Add a 4 corners polygon primitive as box body*
4,1,4,$2,$3,$4,$5,$6,$7,$8,$9,$2,$3,0*
0 Add four circle primitives for the rounded corners*
1,1,$1+$1,$2,$3*
1,1,$1+$1,$4,$5*
1,1,$1+$1,$6,$7*
1,1,$1+$1,$8,$9*
0 Add four rect primitives between the rounded corners*
20,1,$1+$1,$2,$3,$4,$5,0*
20,1,$1+$1,$4,$5,$6,$7,0*
20,1,$1+$1,$6,$7,$8,$9,0*
20,1,$1+$1,$8,$9,$2,$3,0*%
G04 Aperture macros list end*
%TA.AperFunction,NonConductor*%
%ADD10C,2.200000*%
%TD*%
%TA.AperFunction,NonConductor*%
%ADD11C,2.500000*%
%TD*%
%TA.AperFunction,NonConductor*%
%ADD12C,0.300000*%
%TD*%
%TA.AperFunction,NonConductor*%
%ADD13C,4.000000*%
%TD*%
%TA.AperFunction,NonConductor*%
%ADD14C,10.000000*%
%TD*%
%TA.AperFunction,NonConductor*%
%ADD15C,8.500000*%
%TD*%
%TA.AperFunction,NonConductor*%
%ADD16C,4.500000*%
%TD*%
%TA.AperFunction,NonConductor*%
%ADD17C,1.500000*%
%TD*%
%TA.AperFunction,NonConductor*%
%ADD18C,6.000000*%
%TD*%
%TA.AperFunction,NonConductor*%
%ADD19C,1.000000*%
%TD*%
%TA.AperFunction,NonConductor*%
%ADD20C,0.600000*%
%TD*%
%TA.AperFunction,NonConductor*%
%ADD21C,0.500000*%
%TD*%
%TA.AperFunction,NonConductor*%
%ADD22C,0.400000*%
%TD*%
%TA.AperFunction,NonConductor*%
%ADD23C,3.000000*%
%TD*%
%TA.AperFunction,NonConductor*%
%ADD24C,2.000000*%
%TD*%
%TA.AperFunction,SMDPad,CuDef*%
%ADD25RoundRect,0.225000X-0.319856X-0.104006X0.069856X-0.329006X0.319856X0.104006X-0.069856X0.329006X0*%
%TD*%
%TA.AperFunction,ComponentPad*%
%ADD26RoundRect,0.250000X0.274519X1.024519X-1.024519X0.274519X-0.274519X-1.024519X1.024519X-0.274519X0*%
%TD*%
%TA.AperFunction,ComponentPad*%
%ADD27C,2.000000*%
%TD*%
%TA.AperFunction,SMDPad,CuDef*%
%ADD28RoundRect,0.050000X0.250000X-0.600000X0.250000X0.600000X-0.250000X0.600000X-0.250000X-0.600000X0*%
%TD*%
%TA.AperFunction,SMDPad,CuDef*%
%ADD29RoundRect,0.050000X-0.394615X-0.516506X0.644615X0.083494X0.394615X0.516506X-0.644615X-0.083494X0*%
%TD*%
%TA.AperFunction,SMDPad,CuDef*%
%ADD30RoundRect,0.225000X0.250000X-0.225000X0.250000X0.225000X-0.250000X0.225000X-0.250000X-0.225000X0*%
%TD*%
%TA.AperFunction,SMDPad,CuDef*%
%ADD31RoundRect,0.225000X-0.069856X-0.329006X0.319856X-0.104006X0.069856X0.329006X-0.319856X0.104006X0*%
%TD*%
%TA.AperFunction,SMDPad,CuDef*%
%ADD32RoundRect,0.050000X-0.644615X0.083494X0.394615X-0.516506X0.644615X-0.083494X-0.394615X0.516506X0*%
%TD*%
%TA.AperFunction,ComponentPad*%
%ADD33RoundRect,0.250000X1.050000X-1.050000X1.050000X1.050000X-1.050000X1.050000X-1.050000X-1.050000X0*%
%TD*%
%TA.AperFunction,ComponentPad*%
%ADD34C,2.600000*%
%TD*%
%TA.AperFunction,ViaPad*%
%ADD35C,0.600000*%
%TD*%
G04 APERTURE END LIST*
D10*
X194700665Y-212840846D02*
G75*
G02*
X197613176Y-213463869I5313535J17720506D01*
G01*
X257265106Y-178848703D02*
X256895949Y-177470991D01*
X202155294Y-63232127D02*
X201456217Y-63931204D01*
D11*
X151754032Y-173231349D02*
G75*
G02*
X150738620Y-173075980I351568J5693449D01*
G01*
D10*
X134025410Y-97624835D02*
X134594719Y-99749525D01*
X260319772Y-180589615D02*
X260432355Y-181009781D01*
X205299335Y-67159154D02*
G75*
G02*
X202386824Y-66536131I-5313535J-17720506D01*
G01*
X134850599Y-179295518D02*
G75*
G02*
X136782662Y-181744214I17406701J11747618D01*
G01*
X205957982Y-70036041D02*
G75*
G02*
X203243644Y-69214845I-5972182J-14843619D01*
G01*
D12*
X168083531Y-87413719D02*
X166394070Y-86625911D01*
D13*
X127996761Y-109635580D02*
X125990288Y-103123939D01*
D14*
X215400000Y-128000000D02*
G75*
G02*
X182215416Y-148054102I-15400000J-12000000D01*
G01*
D10*
X142401465Y-99906920D02*
X142734894Y-101151297D01*
X206391916Y-76673174D02*
X205028230Y-78036862D01*
D15*
X211800000Y-46716556D02*
G75*
G02*
X217716339Y-232342689I-11800000J-93283444D01*
G01*
D13*
X209705260Y-217538845D02*
X205459111Y-221905344D01*
X302000000Y-133800000D02*
X292997779Y-133800000D01*
D12*
X229427693Y-84121213D02*
X235393009Y-73788985D01*
D16*
X219132079Y-139930818D02*
X282874202Y-139930818D01*
D13*
X211400000Y-44551366D02*
X203500000Y-47000000D01*
D10*
X137571835Y-178798984D02*
G75*
G02*
X139567641Y-181009785I14685465J11251084D01*
G01*
D12*
X136998477Y-143852530D02*
X132776986Y-143852530D01*
D10*
X251147536Y-104663855D02*
G75*
G02*
X248475741Y-103983787I-3404836J-7788245D01*
G01*
D17*
X189459204Y-61473376D02*
X186087422Y-65593575D01*
D12*
X228293964Y-84151940D02*
X228100200Y-83582981D01*
D13*
X205459111Y-221905344D02*
X205417859Y-225879493D01*
D10*
X262428165Y-101201016D02*
G75*
G02*
X260432359Y-98990215I-14685465J-11251084D01*
G01*
X248475741Y-176016207D02*
G75*
G02*
X251147536Y-175336145I-733031J8468337D01*
G01*
D14*
X220000000Y-128800000D02*
X217227407Y-129846410D01*
D10*
X266018620Y-182410982D02*
G75*
G02*
X271147162Y-170222147I-18275920J14863082D01*
G01*
X260319772Y-99410385D02*
X260013350Y-100553968D01*
D12*
X228115174Y-83557045D02*
X233529965Y-74178351D01*
D10*
X139680228Y-99410385D02*
X139986650Y-100553968D01*
X193046920Y-199989327D02*
G75*
G02*
X194971773Y-201963131I6967280J4869027D01*
G01*
D18*
X211800000Y-46716557D02*
X204798842Y-48600000D01*
D10*
X194988589Y-209017388D02*
X195997144Y-208008833D01*
D17*
X210540796Y-218526624D02*
X213912578Y-214406425D01*
D19*
X205922358Y-70071665D02*
X205957982Y-70036041D01*
D11*
X249710088Y-173026406D02*
G75*
G02*
X248207772Y-173309619I-1825788J5558806D01*
G01*
D20*
X127359992Y-169768808D02*
X127903389Y-168221308D01*
D10*
X254481134Y-101881961D02*
X254061497Y-103448074D01*
X204991752Y-67466737D02*
X204154591Y-68303898D01*
X196776015Y-214301030D02*
X197613176Y-213463869D01*
X271147180Y-109777851D02*
G75*
G02*
X266018634Y-97589007I-23404480J-2674249D01*
G01*
X206811525Y-76253567D02*
G75*
G02*
X204624146Y-74905411I-6825725J-8626133D01*
G01*
D13*
X210800000Y-48600000D02*
X202400000Y-50200000D01*
D10*
X248475740Y-176016207D02*
X248066218Y-173389895D01*
D17*
X126723551Y-109865285D02*
X128605857Y-114845433D01*
D10*
X193608084Y-203326826D02*
X194971770Y-201963138D01*
X196076939Y-215000106D02*
X195457120Y-215619925D01*
D12*
X166360199Y-86610117D02*
X163625494Y-81873469D01*
D14*
X180000000Y-149000000D02*
X181897247Y-148198190D01*
D10*
X265974590Y-182375165D02*
X265405281Y-180250475D01*
X205922358Y-70071665D02*
X205011411Y-70982612D01*
X139680228Y-180589615D02*
X139567645Y-181009781D01*
X206483383Y-73046174D02*
X205770623Y-73758934D01*
X142734894Y-101151297D02*
X143104051Y-102529009D01*
X262990466Y-99102477D02*
X263217336Y-98255788D01*
D21*
X272698354Y-110256869D02*
X272085007Y-112826296D01*
D10*
X195008248Y-212533263D02*
X195845409Y-211696102D01*
D11*
X248245968Y-106768651D02*
G75*
G02*
X249261380Y-106924020I-351568J-5693449D01*
G01*
D10*
X139567645Y-98990219D02*
G75*
G02*
X137571839Y-101201019I12689655J-13461881D01*
G01*
X148199732Y-102227830D02*
G75*
G02*
X145938506Y-103448079I4057568J-10224270D01*
G01*
X203710675Y-61676746D02*
X202155294Y-63232127D01*
X145938503Y-176551926D02*
G75*
G02*
X148199730Y-177772175I6318797J9004026D01*
G01*
X254061497Y-103448074D02*
G75*
G02*
X251800270Y-102227825I-6318797J-9004026D01*
G01*
X203223985Y-65698970D02*
X202386824Y-66536131D01*
X128852820Y-170222149D02*
G75*
G02*
X133981380Y-182410982I23404470J2674279D01*
G01*
X145257977Y-100908313D02*
X145518866Y-101881961D01*
X151511131Y-176008609D02*
X151882261Y-173400229D01*
D19*
X257598535Y-99906920D02*
X257611575Y-99858257D01*
D10*
X193188475Y-203746433D02*
G75*
G02*
X195375854Y-205094589I6825725J8626133D01*
G01*
X260319772Y-99410385D02*
X260432355Y-98990219D01*
D13*
X272003239Y-170364420D02*
X274009712Y-176876061D01*
D10*
X251646682Y-102801026D02*
X251147537Y-104663857D01*
X142388425Y-99858257D02*
G75*
G02*
X140320083Y-101798348I9868875J-12593843D01*
G01*
X139680228Y-180589615D02*
X139986650Y-179446032D01*
X265149401Y-100704482D02*
G75*
G02*
X263217338Y-98255786I-17406701J-11747618D01*
G01*
X251800268Y-177772170D02*
X251646682Y-177198974D01*
X139986650Y-179446032D02*
X140320080Y-178201655D01*
X137265413Y-100057433D02*
X137571835Y-101201016D01*
X137009534Y-180897523D02*
X137265413Y-179942567D01*
X134594719Y-99749525D02*
X134850599Y-100704482D01*
X143104051Y-177470991D02*
G75*
G02*
X145257974Y-179091692I9153249J9923091D01*
G01*
X193046920Y-199989326D02*
X195116612Y-198321514D01*
X251800268Y-102227830D02*
X251646682Y-102801026D01*
X137009534Y-99102477D02*
X137265413Y-100057433D01*
D19*
X257598535Y-180093080D02*
X257611575Y-180141743D01*
D12*
X136553890Y-141320904D02*
X131728176Y-141320904D01*
D13*
X190294740Y-62461155D02*
X194803466Y-57467678D01*
D10*
X137009534Y-99102477D02*
X136782664Y-98255788D01*
X204154591Y-68303898D02*
X203243644Y-69214845D01*
D17*
X273276449Y-170134715D02*
X271394143Y-165154567D01*
D19*
X142401465Y-99906920D02*
X142388425Y-99858257D01*
D10*
X195008248Y-212533263D02*
X194700665Y-212840846D01*
X256895949Y-102529009D02*
G75*
G02*
X254742026Y-100908308I-9153249J-9923091D01*
G01*
X251800268Y-177772170D02*
G75*
G02*
X254061494Y-176551921I-4057568J10224270D01*
G01*
X196076939Y-215000106D02*
X196776015Y-214301030D01*
X248488869Y-103991391D02*
X248117739Y-106599771D01*
X148353318Y-102801026D02*
X148852463Y-104663857D01*
D12*
X136973100Y-142423221D02*
X132466228Y-142423221D01*
D10*
X145518866Y-178118039D02*
X145938503Y-176551926D01*
X260013350Y-100553968D02*
X259679920Y-101798345D01*
X134025410Y-182375165D02*
X134594719Y-180250475D01*
X259679920Y-101798345D02*
G75*
G02*
X257611578Y-99858254I-11937220J-10653755D01*
G01*
D13*
X211200000Y-231461643D02*
X205417859Y-225879502D01*
D10*
X204991752Y-67466737D02*
X205299335Y-67159154D01*
X254481134Y-178118039D02*
X254061497Y-176551926D01*
X257611575Y-180141743D02*
G75*
G02*
X259679917Y-178201652I-9868875J12593843D01*
G01*
D22*
X182913858Y-158032477D02*
X184976410Y-158915250D01*
D10*
X265405281Y-180250475D02*
X265149401Y-179295518D01*
D13*
X273489631Y-175133604D02*
X275958319Y-182627144D01*
D10*
X142734894Y-178848703D02*
X143104051Y-177470991D01*
D13*
X193681778Y-58789311D02*
X202902083Y-47700000D01*
D10*
X206953080Y-80010674D02*
X204883388Y-81678486D01*
D13*
X220200000Y-123000000D02*
X214000000Y-125400000D01*
D10*
X148199732Y-102227830D02*
X148353318Y-102801026D01*
X193516617Y-206953826D02*
G75*
G02*
X195997144Y-208008832I6497583J11833486D01*
G01*
X260013350Y-179446032D02*
X259679920Y-178201655D01*
X260319772Y-180589615D02*
X260013350Y-179446032D01*
X206811525Y-76253567D02*
X206391916Y-76673174D01*
X195457120Y-215619925D02*
G75*
G02*
X198543783Y-216068797I4557080J20499585D01*
G01*
D19*
X194077642Y-209928335D02*
X194042018Y-209963959D01*
D10*
X257598535Y-99906920D02*
X257265106Y-101151297D01*
X254742023Y-179091687D02*
X254481134Y-178118039D01*
D12*
X167257343Y-85700917D02*
X165320131Y-82345568D01*
D10*
X140320080Y-178201655D02*
G75*
G02*
X142388422Y-180141746I11937220J10653755D01*
G01*
D13*
X216600000Y-234080000D02*
X211318773Y-231576307D01*
D10*
X142401465Y-180093080D02*
X142734894Y-178848703D01*
D11*
X196253337Y-199563402D02*
G75*
G02*
X195256904Y-198403968I3901163J4360602D01*
G01*
D10*
X257265106Y-101151297D02*
X256895949Y-102529009D01*
X206953080Y-80010673D02*
G75*
G02*
X205028227Y-78036869I-6967280J-4869027D01*
G01*
X148852464Y-175336145D02*
G75*
G02*
X151524259Y-176016213I3404836J7788245D01*
G01*
D11*
X203746663Y-80436598D02*
G75*
G02*
X204743096Y-81596032I-3901163J-4360602D01*
G01*
D10*
X148353318Y-177198974D02*
X148852463Y-175336143D01*
X197844706Y-216767873D02*
X198543783Y-216068796D01*
D12*
X137470729Y-143380278D02*
X136998477Y-143852530D01*
D10*
X265974590Y-97624835D02*
X265405281Y-99749525D01*
X205011411Y-70982612D02*
X204002856Y-71991167D01*
X263217336Y-181744212D02*
G75*
G02*
X265149398Y-179295516I-15474636J14196312D01*
G01*
X137265413Y-179942567D02*
X137571835Y-178798984D01*
D23*
X176866492Y-150476465D02*
G75*
G02*
X125098182Y-179884185I-25474200J-15425530D01*
G01*
D21*
X219305061Y-120332528D02*
X218673920Y-122096010D01*
D12*
X138474578Y-141316869D02*
X136973100Y-142423221D01*
D23*
X128428134Y-170292517D02*
X125098182Y-179884166D01*
D12*
X229529359Y-85918443D02*
X229413725Y-84145413D01*
D10*
X196280322Y-218379293D02*
G75*
G02*
X209400441Y-216726340I3733878J23258953D01*
G01*
X194042018Y-209963959D02*
G75*
G02*
X196756356Y-210785155I5972182J14843619D01*
G01*
D23*
X222945185Y-126707179D02*
G75*
G02*
X275115367Y-99535750I25935175J13873559D01*
G01*
D10*
X260432355Y-181009781D02*
G75*
G02*
X262428161Y-178798981I-12689655J13461881D01*
G01*
X145518866Y-101881961D02*
X145938503Y-103448074D01*
X137009534Y-180897523D02*
X136782664Y-181744212D01*
X262990466Y-99102477D02*
X262734587Y-100057433D01*
X262990466Y-180897523D02*
X262734587Y-179942567D01*
X193516617Y-206953826D02*
X194229377Y-206241066D01*
D22*
X181844423Y-160323973D02*
X182234246Y-157910786D01*
D12*
X230562943Y-84393801D02*
X237062007Y-73137091D01*
D10*
X195845409Y-211696102D02*
X196756356Y-210785155D01*
X257598535Y-180093080D02*
X257265106Y-178848703D01*
X193188475Y-203746433D02*
X193608084Y-203326826D01*
X203923061Y-64999894D02*
X204542880Y-64380075D01*
X194077642Y-209928335D02*
X194988589Y-209017388D01*
X194229377Y-206241066D02*
X195375852Y-205094593D01*
X151524259Y-103983793D02*
G75*
G02*
X148852464Y-104663855I733031J-8468337D01*
G01*
X254742023Y-100908313D02*
X254481134Y-101881961D01*
X204542880Y-64380075D02*
G75*
G02*
X201456217Y-63931203I-4557080J-20499585D01*
G01*
D13*
X216800000Y-230400000D02*
X210400000Y-230000000D01*
D10*
X148199732Y-177772170D02*
X148353318Y-177198974D01*
X265405281Y-99749525D02*
X265149401Y-100704482D01*
D11*
X150289912Y-106973594D02*
G75*
G02*
X151792228Y-106690381I1825788J-5558806D01*
G01*
D12*
X165805375Y-87562032D02*
X165211348Y-87402863D01*
D13*
X180600000Y-157600000D02*
X185000000Y-155200000D01*
D10*
X134594719Y-180250475D02*
X134850599Y-179295518D01*
D24*
X203500000Y-47000000D02*
X199400000Y-51800000D01*
D12*
X165197571Y-87379001D02*
X161737381Y-81385776D01*
D10*
X139986650Y-100553968D02*
X140320080Y-101798345D01*
X151524260Y-103983793D02*
X151933782Y-106610105D01*
D23*
X271570635Y-109691662D02*
X275115365Y-99535747D01*
D10*
X136782664Y-98255788D02*
G75*
G02*
X134850602Y-100704484I15474636J-14196312D01*
G01*
X139680228Y-99410385D02*
X139567645Y-98990219D01*
X203719678Y-61620707D02*
G75*
G02*
X190599559Y-63273660I-3733878J-23258953D01*
G01*
X205770623Y-73758934D02*
X204624148Y-74905407D01*
X145257977Y-179091687D02*
X145518866Y-178118039D01*
D13*
X126510369Y-104866396D02*
X124041681Y-97372856D01*
D10*
X262734587Y-100057433D02*
X262428165Y-101201016D01*
X251646682Y-177198974D02*
X251147537Y-175336143D01*
X203923061Y-64999894D02*
X203223985Y-65698970D01*
X262990466Y-180897523D02*
X263217336Y-181744212D01*
X262734587Y-179942567D02*
X262428165Y-178798984D01*
X196289325Y-218323254D02*
X197844706Y-216767873D01*
X206483383Y-73046174D02*
G75*
G02*
X204002856Y-71991168I-6497583J-11833486D01*
G01*
X254742023Y-179091687D02*
G75*
G02*
X256895945Y-177470987I-6999323J11543787D01*
G01*
X133981380Y-97589018D02*
G75*
G02*
X128852820Y-109777851I18275910J-14863112D01*
G01*
X145257977Y-100908313D02*
G75*
G02*
X143104055Y-102529013I6999323J-11543787D01*
G01*
D19*
X142401465Y-180093080D02*
X142388425Y-180141743D01*
X224444807Y-129675604D02*
X222811265Y-135318153D01*
D25*
%TO.P,REF\u002A\u002A,1*%
%TO.N,N/C*%
X229269493Y-81374930D03*
%TO.P,REF\u002A\u002A,2*%
X230611833Y-82149930D03*
%TD*%
D26*
%TO.P,REF\u002A\u002A,1*%
%TO.N,N/C*%
X157034660Y-50343573D03*
D27*
%TO.P,REF\u002A\u002A,2*%
X153735103Y-52248573D03*
%TO.P,REF\u002A\u002A,3*%
X150435546Y-54153573D03*
%TO.P,REF\u002A\u002A,4*%
X147135990Y-56058573D03*
%TO.P,REF\u002A\u002A,5*%
X143836433Y-57963573D03*
%TD*%
D28*
%TO.P,REF\u002A\u002A4,1*%
%TO.N,N/C*%
X137526750Y-143414614D03*
%TO.P,REF\u002A\u002A4,2*%
X138476750Y-141314614D03*
%TO.P,REF\u002A\u002A4,3*%
X136576750Y-141314614D03*
%TD*%
D29*
%TO.P,REF\u002A\u002A3,1*%
%TO.N,N/C*%
X165806232Y-87603885D03*
%TO.P,REF\u002A\u002A3,2*%
X168099886Y-87376609D03*
%TO.P,REF\u002A\u002A3,3*%
X167149886Y-85731161D03*
%TD*%
D30*
%TO.P,REF\u002A\u002A,1*%
%TO.N,N/C*%
X135186800Y-143883287D03*
%TO.P,REF\u002A\u002A,2*%
X135186800Y-142333287D03*
%TD*%
D31*
%TO.P,REF\u002A\u002A,1*%
%TO.N,N/C*%
X164177667Y-85929862D03*
%TO.P,REF\u002A\u002A,2*%
X165520007Y-85154862D03*
%TD*%
D32*
%TO.P,REF\u002A\u002A,1*%
%TO.N,N/C*%
X228279482Y-84189271D03*
%TO.P,REF\u002A\u002A,2*%
X229623136Y-86061995D03*
%TO.P,REF\u002A\u002A,3*%
X230573136Y-84416547D03*
%TD*%
D33*
%TO.P,REF\u002A\u002A,1*%
%TO.N,N/C*%
X302400000Y-148960000D03*
D34*
%TO.P,REF\u002A\u002A,2*%
X302400000Y-143880000D03*
%TO.P,REF\u002A\u002A,3*%
X302400000Y-138800000D03*
%TO.P,REF\u002A\u002A,4*%
X302400000Y-133720000D03*
%TD*%
D35*
%TO.N,*%
X209600000Y-153200000D03*
X214600000Y-153000000D03*
X243480695Y-110303236D03*
X198800000Y-161800000D03*
X283483596Y-141401504D03*
X201571552Y-83455471D03*
X185400000Y-157600000D03*
X197721236Y-58286097D03*
X205800000Y-155000000D03*
X268094643Y-178593162D03*
X247054602Y-169024196D03*
X194772114Y-198739956D03*
X276513965Y-181666187D03*
X198428448Y-196544529D03*
X131995080Y-178571747D03*
X191600000Y-153800000D03*
X242848341Y-170801857D03*
X128111503Y-178913277D03*
X190000000Y-152600000D03*
X267406573Y-179608115D03*
X129739745Y-100066447D03*
X197600000Y-157600000D03*
X283500173Y-139930818D03*
X202827102Y-83423545D03*
X248408254Y-172681892D03*
X195534040Y-199691391D03*
X185600000Y-153200000D03*
X269132421Y-179285904D03*
X198989002Y-58046569D03*
X131728176Y-141320904D03*
X203800000Y-155600000D03*
X202846749Y-84651467D03*
X151830969Y-169657850D03*
X194817744Y-193741514D03*
X180901209Y-155198554D03*
X151816777Y-110366731D03*
X244576624Y-109740685D03*
X271479252Y-180101166D03*
X152431095Y-170761151D03*
X214800000Y-149400000D03*
X283400711Y-138517115D03*
X130879942Y-179130499D03*
X190800000Y-155600000D03*
X247917650Y-107285708D03*
X129298352Y-178741154D03*
X132530020Y-179675110D03*
X204200000Y-157000000D03*
X187800000Y-153400000D03*
X206600000Y-158400000D03*
X124277612Y-96462797D03*
X186800000Y-154800000D03*
X214200000Y-146600000D03*
X152416903Y-109263430D03*
X182600000Y-145600000D03*
X187400000Y-150200000D03*
X211800000Y-153000000D03*
X206200000Y-156600000D03*
X197153251Y-195348533D03*
X246495669Y-109835795D03*
X208800000Y-157600000D03*
X186200000Y-156200000D03*
X198391610Y-195262578D03*
X128537949Y-180130958D03*
X210200000Y-155000000D03*
X152039919Y-173931661D03*
X198290745Y-163313663D03*
X184000000Y-147600000D03*
X249606605Y-172482147D03*
X199456380Y-60486615D03*
X202278764Y-221713903D03*
X156063803Y-171383302D03*
X197000000Y-159400000D03*
X188000000Y-157000000D03*
X196400000Y-161200000D03*
X205251020Y-87491319D03*
X247040410Y-110951223D03*
X204400000Y-159000000D03*
X201386490Y-163350961D03*
X214200000Y-158400000D03*
X188400000Y-160400000D03*
X270690745Y-101266894D03*
X130867579Y-100714096D03*
X282041402Y-141418081D03*
X216292665Y-150756815D03*
X153504331Y-170164205D03*
X131411199Y-180227481D03*
X199327977Y-219424975D03*
X275469617Y-183473074D03*
X157786279Y-69270523D03*
X205227886Y-81260044D03*
X247960081Y-106068339D03*
X155423376Y-170259315D03*
X150538719Y-106286670D03*
X212600000Y-154800000D03*
X156505114Y-110327815D03*
X199400000Y-160000000D03*
X213800000Y-151200000D03*
X196050577Y-192503769D03*
X196111359Y-193734147D03*
X150393395Y-107517853D03*
X205182256Y-86258486D03*
X221200000Y-148000000D03*
X159201736Y-57592434D03*
X268448035Y-180294476D03*
X155409185Y-109765264D03*
X200000000Y-156400000D03*
X276630004Y-182942612D03*
X215400000Y-154800000D03*
X156519305Y-169696764D03*
X202200000Y-156400000D03*
X233529965Y-74178351D03*
X128094302Y-101116516D03*
X151591746Y-107318108D03*
X268004920Y-101428253D03*
X249461281Y-173713330D03*
X132466228Y-142423221D03*
X152023929Y-172712062D03*
X200598347Y-61820138D03*
X179800000Y-148800000D03*
X211000000Y-151400000D03*
X270686622Y-178681581D03*
X193000000Y-162200000D03*
X271905698Y-178883484D03*
X163625494Y-81873469D03*
X131551965Y-99705524D03*
X201600000Y-162000000D03*
X248183223Y-169633269D03*
X271462051Y-99869042D03*
X181200000Y-146000000D03*
X249249769Y-106301278D03*
X207600000Y-162000000D03*
X216400000Y-145600000D03*
X217400000Y-148200000D03*
X178000000Y-147600000D03*
X215800000Y-147400000D03*
X203949423Y-87496231D03*
X178588725Y-151468741D03*
X204600000Y-161200000D03*
X243494886Y-169672185D03*
X182800000Y-148600000D03*
X189200000Y-154000000D03*
X268588801Y-99772519D03*
X218600000Y-149200000D03*
X201844079Y-220557201D03*
X189000000Y-158800000D03*
X275370156Y-182180072D03*
X200672023Y-60575025D03*
X203327062Y-80798346D03*
X202200000Y-158000000D03*
X185200000Y-147000000D03*
X151743649Y-106102540D03*
X190800000Y-161400000D03*
X193200000Y-154600000D03*
X187000000Y-158800000D03*
X235393009Y-73788985D03*
X270260255Y-179933553D03*
X219933632Y-150239348D03*
X183000000Y-146800000D03*
X195900778Y-198263724D03*
X192000000Y-158000000D03*
X193800000Y-160600000D03*
X177800000Y-149600000D03*
X181400000Y-149400000D03*
X156049612Y-108641277D03*
X150844619Y-172494946D03*
X269120058Y-100869501D03*
X185000000Y-149600000D03*
X211400000Y-158600000D03*
X152959590Y-169048777D03*
X243936197Y-108616698D03*
X195000000Y-157000000D03*
X157151659Y-109198143D03*
X200624663Y-218268272D03*
X183800000Y-145000000D03*
X281975094Y-139930818D03*
X207800000Y-154200000D03*
X181600000Y-147600000D03*
X183000000Y-152600000D03*
X237058090Y-73143875D03*
X161737381Y-81385776D03*
X123172482Y-98109440D03*
X247583097Y-170736570D03*
X165320131Y-82345568D03*
X184000000Y-156200000D03*
X188600000Y-151600000D03*
X198000000Y-156000000D03*
X212400000Y-149800000D03*
X196672938Y-199201654D03*
X211800000Y-160200000D03*
X153490139Y-109860376D03*
X144931206Y-48588651D03*
X216200000Y-156400000D03*
X197172898Y-196576455D03*
X190000000Y-157400000D03*
X199800000Y-158000000D03*
X271888497Y-101086723D03*
X128520748Y-99898834D03*
X219600000Y-147200000D03*
X194748980Y-192508681D03*
X129313378Y-101318419D03*
X157165850Y-170826436D03*
X204600000Y-162800000D03*
X132796408Y-143852530D03*
X199453344Y-59186058D03*
X195600000Y-155400000D03*
X201010998Y-221953431D03*
X181000000Y-152200000D03*
X179800000Y-146800000D03*
X199375337Y-61731728D03*
X248256351Y-173897460D03*
X210800000Y-156800000D03*
X209400000Y-159200000D03*
X270243054Y-100036654D03*
X209800000Y-161200000D03*
X123006713Y-96794336D03*
X247568905Y-109238849D03*
X152945398Y-110975804D03*
X180200000Y-150600000D03*
X199401653Y-218179862D03*
X191400000Y-159600000D03*
X242834150Y-109173564D03*
X132593427Y-100391885D03*
X249155381Y-107505054D03*
X207200000Y-160400000D03*
X129756946Y-179963346D03*
X195600000Y-162800000D03*
X246509861Y-170139624D03*
X243950388Y-171358723D03*
X213400000Y-156800000D03*
X150709548Y-173703840D03*
X184800000Y-154600000D03*
X218404409Y-153521584D03*
X192600000Y-156400000D03*
X213600000Y-148200000D03*
X182000000Y-154000000D03*
X218200000Y-146400000D03*
X203888641Y-86265853D03*
X131905357Y-101406838D03*
X281958517Y-138467384D03*
X204465960Y-80308609D03*
X188600000Y-155400000D03*
X182600000Y-150400000D03*
X204099222Y-81736276D03*
X184000000Y-151000000D03*
X244590815Y-170234736D03*
X200543620Y-219513385D03*
X198155921Y-59442799D03*
X186400000Y-151600000D03*
X201608390Y-84737422D03*
X124354971Y-97744747D03*
X208200000Y-156000000D03*
X202000000Y-160000000D03*
X186200000Y-148600000D03*
X200546656Y-220813942D03*
X139576193Y-50920390D03*
X194400000Y-158800000D03*
X217400000Y-152400000D03*
X267469980Y-100324890D03*
X248169031Y-110342150D03*
%TD*%
M02*
