%TF.GenerationSoftware,KiCad,Pcbnew,10.0.4*%
%TF.CreationDate,2026-07-07T13:00:24+03:00*%
%TF.ProjectId,PcbMot,5063624d-6f74-42e6-9b69-6361645f7063,rev?*%
%TF.SameCoordinates,Original*%
%TF.FileFunction,Copper,L4,Inr*%
%TF.FilePolarity,Positive*%
%FSLAX46Y46*%
G04 Gerber Fmt 4.6, Leading zero omitted, Abs format (unit mm)*
G04 Created by KiCad (PCBNEW 10.0.4) date 2026-07-07 13:00:24*
%MOMM*%
%LPD*%
G01*
G04 APERTURE LIST*
G04 Aperture macros list*
%AMRoundRect*
0 Rectangle with rounded corners*
0 $1 Rounding radius*
0 $2 $3 $4 $5 $6 $7 $8 $9 X,Y pos of 4 corners*
0 Add a 4 corners polygon primitive as box body*
4,1,4,$2,$3,$4,$5,$6,$7,$8,$9,$2,$3,0*
0 Add four circle primitives for the rounded corners*
1,1,$1+$1,$2,$3*
1,1,$1+$1,$4,$5*
1,1,$1+$1,$6,$7*
1,1,$1+$1,$8,$9*
0 Add four rect primitives between the rounded corners*
20,1,$1+$1,$2,$3,$4,$5,0*
20,1,$1+$1,$4,$5,$6,$7,0*
20,1,$1+$1,$6,$7,$8,$9,0*
20,1,$1+$1,$8,$9,$2,$3,0*%
G04 Aperture macros list end*
%TA.AperFunction,NonConductor*%
%ADD10C,2.200000*%
%TD*%
%TA.AperFunction,NonConductor*%
%ADD11C,2.500000*%
%TD*%
%TA.AperFunction,NonConductor*%
%ADD12C,1.000000*%
%TD*%
%TA.AperFunction,NonConductor*%
%ADD13C,4.500000*%
%TD*%
%TA.AperFunction,NonConductor*%
%ADD14C,4.000000*%
%TD*%
%TA.AperFunction,ComponentPad*%
%ADD15RoundRect,0.250000X0.274519X1.024519X-1.024519X0.274519X-0.274519X-1.024519X1.024519X-0.274519X0*%
%TD*%
%TA.AperFunction,ComponentPad*%
%ADD16C,2.000000*%
%TD*%
%TA.AperFunction,ComponentPad*%
%ADD17RoundRect,0.250000X1.050000X-1.050000X1.050000X1.050000X-1.050000X1.050000X-1.050000X-1.050000X0*%
%TD*%
%TA.AperFunction,ComponentPad*%
%ADD18C,2.600000*%
%TD*%
%TA.AperFunction,ViaPad*%
%ADD19C,0.600000*%
%TD*%
G04 APERTURE END LIST*
D10*
X261241095Y-167834964D02*
X260267447Y-168095852D01*
X196724977Y-69214845D02*
G75*
G02*
X194010639Y-70036041I3257843J-15664815D01*
G01*
X258610281Y-114023120D02*
X258037087Y-113869531D01*
X262939254Y-172556325D02*
G75*
G02*
X263585245Y-169795041I-15195054J5011025D01*
G01*
X258037087Y-113869531D02*
X256174255Y-113370388D01*
X202089381Y-59216694D02*
X200005885Y-58318043D01*
X196045560Y-64999894D02*
X195425741Y-64380075D01*
X255444508Y-163945943D02*
X253029693Y-164592991D01*
X130292006Y-175959955D02*
G75*
G02*
X134722135Y-183241530I21980994J8384855D01*
G01*
X135833570Y-172252687D02*
X137077947Y-172586117D01*
X193576705Y-76673174D02*
X194940391Y-78036862D01*
X205023131Y-212533263D02*
X204185970Y-211696102D01*
X204712655Y-61839968D02*
X202089381Y-59216694D01*
X266621308Y-176746102D02*
G75*
G02*
X267775904Y-173848537I-18877108J9200802D01*
G01*
X267758705Y-106121669D02*
G75*
G02*
X266604110Y-103224104I-20031705J-6303231D01*
G01*
X262275005Y-109828698D02*
X260897294Y-109459541D01*
X136431955Y-169824833D02*
G75*
G02*
X137077945Y-172586118I15841045J2249733D01*
G01*
X265332246Y-183161295D02*
X268915705Y-182201110D01*
D11*
X200079539Y-221549342D02*
X202130287Y-221070452D01*
D12*
X136463417Y-110191920D02*
X136414754Y-110204959D01*
D10*
X265315045Y-96808912D02*
X268898504Y-97769097D01*
X144555492Y-116054057D02*
X146970307Y-115407009D01*
X203255364Y-214301030D02*
X202418203Y-213463869D01*
X201487596Y-216068796D02*
G75*
G02*
X204574259Y-215619924I-1470416J20948456D01*
G01*
X195965765Y-71991167D02*
G75*
G02*
X193485238Y-73046173I4017055J-12888493D01*
G01*
X136463417Y-110191920D02*
X137707794Y-109858490D01*
X205802002Y-206241066D02*
X204655527Y-205094593D01*
X134042940Y-174361080D02*
X135186523Y-174667502D01*
D11*
X129336429Y-99294212D02*
X128725786Y-101309656D01*
D10*
X263536583Y-169808080D02*
X262292206Y-170141510D01*
X136480618Y-169837873D02*
X137724995Y-170171302D01*
X203954440Y-215000106D02*
X203255364Y-214301030D01*
X265310013Y-108053735D02*
X265730179Y-108166318D01*
X133087984Y-174105200D02*
X134042940Y-174361080D01*
D13*
X281156995Y-139857386D02*
X287609572Y-139857386D01*
D11*
X198610862Y-199026636D02*
X197770963Y-195876562D01*
D10*
X265327214Y-171916473D02*
X265747380Y-171803889D01*
X137724995Y-170171302D02*
X139102706Y-170540459D01*
X204185970Y-211696102D02*
X203275023Y-210785155D01*
X134672786Y-108083527D02*
X135816369Y-107777105D01*
D11*
X201389138Y-80973364D02*
X202229037Y-84123438D01*
X149877706Y-170785641D02*
X152775782Y-169805256D01*
D10*
X195814030Y-68303898D02*
X196724977Y-69214845D01*
X265957060Y-105638920D02*
X264813477Y-105332498D01*
X196257946Y-61676746D02*
X197813327Y-63232127D01*
X130299045Y-104079087D02*
X132423735Y-103509778D01*
D11*
X270646370Y-99264419D02*
X271257013Y-101279864D01*
D10*
X141298665Y-111484508D02*
G75*
G02*
X141372519Y-114052912I10957135J-970192D01*
G01*
X138758905Y-112165036D02*
X139732553Y-111904148D01*
D12*
X194046263Y-70071665D02*
X194010639Y-70036041D01*
D10*
X252905103Y-164662582D02*
G75*
G02*
X253024768Y-170202477I-5160903J-2882718D01*
G01*
X202418203Y-213463869D02*
G75*
G02*
X205330714Y-212840846I-2401023J18343529D01*
G01*
X143808543Y-113400182D02*
G75*
G02*
X144555492Y-116054054I8447257J945482D01*
G01*
D11*
X199920461Y-58450658D02*
X197869713Y-58929548D01*
D10*
X130316246Y-175950706D02*
X132440936Y-176520015D01*
X131084295Y-97798890D02*
X129264293Y-99153925D01*
X256191457Y-166599818D02*
G75*
G02*
X255444508Y-163945946I-8447257J-945482D01*
G01*
X258054288Y-166100677D02*
X256191456Y-166599819D01*
X137060746Y-107443675D02*
G75*
G02*
X136414755Y-110204959I15195054J-5011025D01*
G01*
D12*
X263536583Y-169808080D02*
X263585246Y-169795041D01*
D10*
X193015541Y-80010676D02*
X194783308Y-81778443D01*
X267559064Y-103479985D02*
X266604107Y-103224105D01*
X194905871Y-81851546D02*
G75*
G02*
X199643731Y-78978009I5076929J-3028154D01*
G01*
X132241295Y-173878331D02*
G75*
G02*
X133395890Y-176775896I20031705J6303231D01*
G01*
X252869324Y-109921627D02*
X250295499Y-109114359D01*
X194046263Y-70071665D02*
X194957210Y-70982612D01*
X134689987Y-171946265D02*
X135833570Y-172252687D01*
X139732553Y-111904148D02*
X141298665Y-111484508D01*
X269707994Y-104040045D02*
G75*
G02*
X265277865Y-96758470I-21980994J-8384855D01*
G01*
D12*
X263519382Y-110162127D02*
X263568045Y-110175167D01*
D10*
X195287345Y-218160032D02*
X197910619Y-220783306D01*
X202186673Y-216767873D02*
X201487596Y-216068796D01*
X258610281Y-114023120D02*
G75*
G02*
X258684137Y-111454715I-10883281J1598220D01*
G01*
D12*
X205953737Y-209928335D02*
X205989361Y-209963959D01*
D10*
X194976869Y-67466737D02*
X194669286Y-67159154D01*
X206984459Y-199989324D02*
X205216692Y-198221557D01*
X262292206Y-170141510D02*
X260914495Y-170510667D01*
X260250246Y-111874355D02*
X258684134Y-111454715D01*
X193485238Y-73046174D02*
X194197998Y-73758934D01*
X265295057Y-183211730D02*
G75*
G02*
X269725186Y-175930159I-17550857J15666430D01*
G01*
X146975265Y-109797511D02*
X149273123Y-109181802D01*
X138776106Y-167864756D02*
G75*
G02*
X139102704Y-170540459I13496894J289656D01*
G01*
X135816369Y-107777105D02*
X137060746Y-107443675D01*
X263568045Y-110175167D02*
G75*
G02*
X262922055Y-107413882I-15841045J-2249733D01*
G01*
X204774927Y-61846957D02*
G75*
G02*
X196253836Y-61651128I-4792127J-23032703D01*
G01*
X268898504Y-97769097D02*
X270718506Y-99124132D01*
X261223894Y-112135244D02*
G75*
G02*
X260897296Y-109459541I-13496894J-289656D01*
G01*
X264183631Y-172222895D02*
X262939254Y-172556325D01*
D11*
X129353630Y-180735581D02*
X128742987Y-178720136D01*
D10*
X139085505Y-109489333D02*
G75*
G02*
X138758905Y-112165036I13170295J-2965367D01*
G01*
X133378692Y-103253898D02*
G75*
G02*
X132224096Y-106151463I18877108J-9200802D01*
G01*
X264166430Y-107747313D02*
X262922053Y-107413883D01*
X141389719Y-165976880D02*
G75*
G02*
X141315863Y-168545285I10883281J-1598220D01*
G01*
X253024735Y-170202489D02*
X250726877Y-170818198D01*
D11*
X250423998Y-170716347D02*
X247276004Y-169868684D01*
D10*
X195344473Y-74905407D02*
G75*
G02*
X193157091Y-76253560I4638327J-9974293D01*
G01*
X133070783Y-105924592D02*
X132224094Y-106151462D01*
X258627482Y-165947088D02*
X258054288Y-166100677D01*
X137707794Y-109858490D02*
X139085505Y-109489333D01*
X134704943Y-96788270D02*
G75*
G02*
X130274814Y-104069841I17550857J-15666430D01*
G01*
X255427309Y-116024263D02*
X252975884Y-114956922D01*
X266929217Y-174075408D02*
X265974262Y-174331287D01*
X261223894Y-112135244D02*
X260250246Y-111874355D01*
X196045560Y-64999894D02*
X196744636Y-65698970D01*
X196744636Y-65698970D02*
X197581797Y-66536131D01*
X255427310Y-116024263D02*
G75*
G02*
X256174262Y-113370391I-7700310J3599363D01*
G01*
X268915705Y-182201110D02*
X270735707Y-180846075D01*
X263519382Y-110162127D02*
X262275005Y-109828698D01*
X269683754Y-104049294D02*
X267559064Y-103479985D01*
D11*
X250122294Y-109214359D02*
X247224218Y-110194744D01*
D10*
X194976869Y-67466737D02*
X195814030Y-68303898D01*
X141389719Y-165976880D02*
X141962913Y-166130469D01*
X197581797Y-66536131D02*
G75*
G02*
X194669286Y-67159154I2401023J-18343529D01*
G01*
X134672786Y-108083527D02*
X134252620Y-108196111D01*
X266929217Y-174075408D02*
X267775906Y-173848538D01*
X138776106Y-167864756D02*
X139749754Y-168125645D01*
X206423295Y-203326826D02*
X205059609Y-201963138D01*
X144572690Y-163975737D02*
G75*
G02*
X143825738Y-166629609I7700310J-3599363D01*
G01*
X193157096Y-76253567D02*
X193576705Y-76673174D01*
X132423735Y-103509778D02*
X133378692Y-103253898D01*
X133070783Y-105924592D02*
X134025738Y-105668713D01*
X252876310Y-109933729D02*
G75*
G02*
X252879124Y-114910247I-5149310J-2491171D01*
G01*
X266912016Y-105894800D02*
X265957060Y-105638920D01*
X141962913Y-166130469D02*
X143825745Y-166629612D01*
X260267447Y-168095852D02*
X258701335Y-168515492D01*
X147123690Y-170066271D02*
G75*
G02*
X147120876Y-165089753I5149310J2491171D01*
G01*
X203954440Y-215000106D02*
X204574259Y-215619925D01*
X133087984Y-174105200D02*
X132241295Y-173878331D01*
X134025738Y-105668713D02*
X135169322Y-105362291D01*
X134689987Y-171946265D02*
X134269821Y-171833682D01*
X141372518Y-114052912D02*
X141945712Y-113899323D01*
D13*
X287801102Y-139937022D02*
X296281388Y-148417308D01*
D10*
X197910619Y-220783306D02*
X199994115Y-221681957D01*
X264830678Y-174637709D02*
G75*
G02*
X265747378Y-171803889I-17086478J7092409D01*
G01*
X195225073Y-218153043D02*
G75*
G02*
X203746164Y-218348872I4792127J23032703D01*
G01*
X141945712Y-113899323D02*
X143808544Y-113400181D01*
X205953737Y-209928335D02*
X205042790Y-209017388D01*
X269700955Y-175920913D02*
X267576265Y-176490222D01*
X205023131Y-212533263D02*
X205330714Y-212840846D01*
X199643755Y-78977988D02*
X201325904Y-80660137D01*
X265327214Y-171916473D02*
X264183631Y-172222895D01*
X267576265Y-176490222D02*
X266621308Y-176746102D01*
X135169322Y-105362291D02*
G75*
G02*
X134252622Y-108196111I17086478J-7092409D01*
G01*
X265974262Y-174331287D02*
X264830678Y-174637709D01*
X198512404Y-63931204D02*
G75*
G02*
X195425741Y-64380076I1470416J-20948456D01*
G01*
D12*
X136480618Y-169837873D02*
X136431955Y-169824833D01*
D10*
X194197998Y-73758934D02*
X195344473Y-74905407D01*
X139749754Y-168125645D02*
X141315866Y-168545285D01*
X260914495Y-170510667D02*
G75*
G02*
X261241095Y-167834964I-13170295J2965367D01*
G01*
D14*
X296328010Y-148771639D02*
X302015973Y-148771639D01*
D10*
X200356245Y-201022012D02*
X198674096Y-199339863D01*
X144572691Y-163975737D02*
X147024116Y-165043078D01*
X206514762Y-206953826D02*
X205802002Y-206241066D01*
X258701335Y-168515492D02*
G75*
G02*
X258627481Y-165947088I-10957135J970192D01*
G01*
X204034235Y-208008833D02*
G75*
G02*
X206514762Y-206953827I-4017055J12888493D01*
G01*
X203275023Y-210785155D02*
G75*
G02*
X205989361Y-209963959I-3257843J15664815D01*
G01*
D11*
X270663571Y-180705788D02*
X271274214Y-178690344D01*
X149576002Y-109283653D02*
X152723996Y-110131316D01*
D10*
X206842904Y-203746433D02*
X206423295Y-203326826D01*
X265730179Y-108166318D02*
G75*
G02*
X264813480Y-105332497I-18003179J-4258582D01*
G01*
X131101496Y-182230903D02*
X129281494Y-180875868D01*
X194940389Y-78036862D02*
G75*
G02*
X193015530Y-80010666I5042411J-6842838D01*
G01*
X266912016Y-105894800D02*
X267758705Y-106121669D01*
X134684955Y-183191088D02*
X131101496Y-182230903D01*
X205059611Y-201963138D02*
G75*
G02*
X206984470Y-199989334I-5042411J6842838D01*
G01*
X194957210Y-70982612D02*
X195965765Y-71991167D01*
X134667754Y-96838705D02*
X131084295Y-97798890D01*
X203742054Y-218323254D02*
X202186673Y-216767873D01*
X147130676Y-170078373D02*
X149704501Y-170885641D01*
X147094897Y-115337418D02*
G75*
G02*
X146975232Y-109797523I5160903J2882718D01*
G01*
X134269821Y-171833682D02*
G75*
G02*
X135186520Y-174667503I18003179J4258582D01*
G01*
X265310013Y-108053735D02*
X264166430Y-107747313D01*
X204655527Y-205094593D02*
G75*
G02*
X206842909Y-203746440I-4638327J9974293D01*
G01*
X197813327Y-63232127D02*
X198512404Y-63931204D01*
X205042790Y-209017388D02*
X204034235Y-208008833D01*
X132440936Y-176520015D02*
X133395893Y-176775895D01*
X205094129Y-198148454D02*
G75*
G02*
X200356269Y-201021991I-5076929J3028154D01*
G01*
D15*
%TO.N,N/C*%
%TO.C,REF\u002A\u002A*%
X157034660Y-50343573D03*
D16*
X153735103Y-52248573D03*
X150435546Y-54153573D03*
X147135990Y-56058573D03*
X143836433Y-57963573D03*
%TD*%
D17*
%TO.N,N/C*%
%TO.C,REF\u002A\u002A*%
X302400000Y-148960000D03*
D18*
X302400000Y-143880000D03*
X302400000Y-138800000D03*
X302400000Y-133720000D03*
%TD*%
D19*
%TO.N,*%
X209600000Y-153200000D03*
X214600000Y-153000000D03*
X243480695Y-110303236D03*
X198800000Y-161800000D03*
X283483596Y-141401504D03*
X201571552Y-83455471D03*
X185400000Y-157600000D03*
X197721236Y-58286097D03*
X205800000Y-155000000D03*
X268094643Y-178593162D03*
X247054602Y-169024196D03*
X194772114Y-198739956D03*
X276513965Y-181666187D03*
X198428448Y-196544529D03*
X131995080Y-178571747D03*
X191600000Y-153800000D03*
X242848341Y-170801857D03*
X128111503Y-178913277D03*
X190000000Y-152600000D03*
X267406573Y-179608115D03*
X129739745Y-100066447D03*
X197600000Y-157600000D03*
X283500173Y-139930818D03*
X202827102Y-83423545D03*
X248408254Y-172681892D03*
X195534040Y-199691391D03*
X185600000Y-153200000D03*
X269132421Y-179285904D03*
X198989002Y-58046569D03*
X131728176Y-141320904D03*
X203800000Y-155600000D03*
X202846749Y-84651467D03*
X151830969Y-169657850D03*
X194817744Y-193741514D03*
X180901209Y-155198554D03*
X151816777Y-110366731D03*
X244576624Y-109740685D03*
X271479252Y-180101166D03*
X152431095Y-170761151D03*
X214800000Y-149400000D03*
X283400711Y-138517115D03*
X130879942Y-179130499D03*
X190800000Y-155600000D03*
X247917650Y-107285708D03*
X129298352Y-178741154D03*
X132530020Y-179675110D03*
X204200000Y-157000000D03*
X187800000Y-153400000D03*
X206600000Y-158400000D03*
X124277612Y-96462797D03*
X186800000Y-154800000D03*
X214200000Y-146600000D03*
X152416903Y-109263430D03*
X182600000Y-145600000D03*
X187400000Y-150200000D03*
X211800000Y-153000000D03*
X206200000Y-156600000D03*
X197153251Y-195348533D03*
X246495669Y-109835795D03*
X208800000Y-157600000D03*
X186200000Y-156200000D03*
X198391610Y-195262578D03*
X128537949Y-180130958D03*
X210200000Y-155000000D03*
X152039919Y-173931661D03*
X198290745Y-163313663D03*
X184000000Y-147600000D03*
X249606605Y-172482147D03*
X199456380Y-60486615D03*
X202278764Y-221713903D03*
X156063803Y-171383302D03*
X197000000Y-159400000D03*
X188000000Y-157000000D03*
X196400000Y-161200000D03*
X205251020Y-87491319D03*
X247040410Y-110951223D03*
X204400000Y-159000000D03*
X201386490Y-163350961D03*
X214200000Y-158400000D03*
X188400000Y-160400000D03*
X270690745Y-101266894D03*
X130867579Y-100714096D03*
X282041402Y-141418081D03*
X216292665Y-150756815D03*
X153504331Y-170164205D03*
X131411199Y-180227481D03*
X199327977Y-219424975D03*
X275469617Y-183473074D03*
X157786279Y-69270523D03*
X205227886Y-81260044D03*
X247960081Y-106068339D03*
X155423376Y-170259315D03*
X150538719Y-106286670D03*
X212600000Y-154800000D03*
X156505114Y-110327815D03*
X199400000Y-160000000D03*
X213800000Y-151200000D03*
X196050577Y-192503769D03*
X196111359Y-193734147D03*
X150393395Y-107517853D03*
X205182256Y-86258486D03*
X221200000Y-148000000D03*
X159201736Y-57592434D03*
X268448035Y-180294476D03*
X155409185Y-109765264D03*
X200000000Y-156400000D03*
X276630004Y-182942612D03*
X215400000Y-154800000D03*
X156519305Y-169696764D03*
X202200000Y-156400000D03*
X233529965Y-74178351D03*
X128094302Y-101116516D03*
X151591746Y-107318108D03*
X268004920Y-101428253D03*
X249461281Y-173713330D03*
X132466228Y-142423221D03*
X152023929Y-172712062D03*
X200598347Y-61820138D03*
X179800000Y-148800000D03*
X211000000Y-151400000D03*
X270686622Y-178681581D03*
X193000000Y-162200000D03*
X271905698Y-178883484D03*
X163625494Y-81873469D03*
X131551965Y-99705524D03*
X201600000Y-162000000D03*
X248183223Y-169633269D03*
X271462051Y-99869042D03*
X181200000Y-146000000D03*
X249249769Y-106301278D03*
X207600000Y-162000000D03*
X216400000Y-145600000D03*
X217400000Y-148200000D03*
X178000000Y-147600000D03*
X215800000Y-147400000D03*
X203949423Y-87496231D03*
X178588725Y-151468741D03*
X204600000Y-161200000D03*
X243494886Y-169672185D03*
X182800000Y-148600000D03*
X189200000Y-154000000D03*
X268588801Y-99772519D03*
X218600000Y-149200000D03*
X201844079Y-220557201D03*
X189000000Y-158800000D03*
X275370156Y-182180072D03*
X200672023Y-60575025D03*
X203327062Y-80798346D03*
X202200000Y-158000000D03*
X185200000Y-147000000D03*
X151743649Y-106102540D03*
X190800000Y-161400000D03*
X193200000Y-154600000D03*
X187000000Y-158800000D03*
X235393009Y-73788985D03*
X270260255Y-179933553D03*
X219933632Y-150239348D03*
X183000000Y-146800000D03*
X195900778Y-198263724D03*
X192000000Y-158000000D03*
X193800000Y-160600000D03*
X177800000Y-149600000D03*
X181400000Y-149400000D03*
X156049612Y-108641277D03*
X150844619Y-172494946D03*
X269120058Y-100869501D03*
X185000000Y-149600000D03*
X211400000Y-158600000D03*
X152959590Y-169048777D03*
X243936197Y-108616698D03*
X195000000Y-157000000D03*
X157151659Y-109198143D03*
X200624663Y-218268272D03*
X183800000Y-145000000D03*
X281975094Y-139930818D03*
X207800000Y-154200000D03*
X181600000Y-147600000D03*
X183000000Y-152600000D03*
X237058090Y-73143875D03*
X161737381Y-81385776D03*
X123172482Y-98109440D03*
X247583097Y-170736570D03*
X165320131Y-82345568D03*
X184000000Y-156200000D03*
X188600000Y-151600000D03*
X198000000Y-156000000D03*
X212400000Y-149800000D03*
X196672938Y-199201654D03*
X211800000Y-160200000D03*
X153490139Y-109860376D03*
X144931206Y-48588651D03*
X216200000Y-156400000D03*
X197172898Y-196576455D03*
X190000000Y-157400000D03*
X199800000Y-158000000D03*
X271888497Y-101086723D03*
X128520748Y-99898834D03*
X219600000Y-147200000D03*
X194748980Y-192508681D03*
X129313378Y-101318419D03*
X157165850Y-170826436D03*
X204600000Y-162800000D03*
X132796408Y-143852530D03*
X199453344Y-59186058D03*
X195600000Y-155400000D03*
X201010998Y-221953431D03*
X181000000Y-152200000D03*
X179800000Y-146800000D03*
X199375337Y-61731728D03*
X248256351Y-173897460D03*
X210800000Y-156800000D03*
X209400000Y-159200000D03*
X270243054Y-100036654D03*
X209800000Y-161200000D03*
X123006713Y-96794336D03*
X247568905Y-109238849D03*
X152945398Y-110975804D03*
X180200000Y-150600000D03*
X199401653Y-218179862D03*
X191400000Y-159600000D03*
X242834150Y-109173564D03*
X132593427Y-100391885D03*
X249155381Y-107505054D03*
X207200000Y-160400000D03*
X129756946Y-179963346D03*
X195600000Y-162800000D03*
X246509861Y-170139624D03*
X243950388Y-171358723D03*
X213400000Y-156800000D03*
X150709548Y-173703840D03*
X184800000Y-154600000D03*
X218404409Y-153521584D03*
X192600000Y-156400000D03*
X213600000Y-148200000D03*
X182000000Y-154000000D03*
X218200000Y-146400000D03*
X203888641Y-86265853D03*
X131905357Y-101406838D03*
X281958517Y-138467384D03*
X204465960Y-80308609D03*
X188600000Y-155400000D03*
X182600000Y-150400000D03*
X204099222Y-81736276D03*
X184000000Y-151000000D03*
X244590815Y-170234736D03*
X200543620Y-219513385D03*
X198155921Y-59442799D03*
X186400000Y-151600000D03*
X201608390Y-84737422D03*
X124354971Y-97744747D03*
X208200000Y-156000000D03*
X202000000Y-160000000D03*
X186200000Y-148600000D03*
X200546656Y-220813942D03*
X139576193Y-50920390D03*
X194400000Y-158800000D03*
X217400000Y-152400000D03*
X267469980Y-100324890D03*
X248169031Y-110342150D03*
%TD*%
M02*
